0
SECTION
2
HEADER
9
$INSUNITS
70
4
9
$ACADVER
1
AC1014
9
$HANDSEED
5
FFFF
0
ENDSEC
0
SECTION
2
TABLES
0
TABLE
2
VPORT
5
8
100
AcDbSymbolTable
0
ENDTAB
0
TABLE
2
LTYPE
5
5
100
AcDbSymbolTable
0
LTYPE
5
14
100
AcDbSymbolTableRecord
100
AcDbLinetypeTableRecord
2
BYBLOCK
70
0
0
LTYPE
5
15
100
AcDbSymbolTableRecord
100
AcDbLinetypeTableRecord
2
BYLAYER
70
0
0
ENDTAB
0
TABLE
2
LAYER
5
2
100
AcDbSymbolTable
70
2
0
LAYER
5
50
100
AcDbSymbolTableRecord
100
AcDbLayerTableRecord
2
0
70
0
6
CONTINUOUS
0
ENDTAB
0
TABLE
2
STYLE
5
3
100
AcDbSymbolTable
70
1
0
STYLE
5
11
100
AcDbSymbolTableRecord
100
AcDbTextStyleTableRecord
2
STANDARD
70
0
0
ENDTAB
0
TABLE
2
VIEW
5
6
100
AcDbSymbolTable
70
0
0
ENDTAB
0
TABLE
2
UCS
5
7
100
AcDbSymbolTable
70
0
0
ENDTAB
0
TABLE
2
APPID
5
9
100
AcDbSymbolTable
70
2
0
APPID
5
12
100
AcDbSymbolTableRecord
100
AcDbRegAppTableRecord
2
ACAD
70
0
0
ENDTAB
0
TABLE
2
DIMSTYLE
5
A
100
AcDbSymbolTable
70
1
0
ENDTAB
0
TABLE
2
BLOCK_RECORD
5
1
100
AcDbSymbolTable
70
1
0
BLOCK_RECORD
5
1F
100
AcDbSymbolTableRecord
100
AcDbBlockTableRecord
2
*MODEL_SPACE
0
BLOCK_RECORD
5
1B
100
AcDbSymbolTableRecord
100
AcDbBlockTableRecord
2
*PAPER_SPACE
0
ENDTAB
0
ENDSEC
0
SECTION
2
BLOCKS
0
BLOCK
5
20
100
AcDbEntity
100
AcDbBlockBegin
2
*MODEL_SPACE
0
ENDBLK
5
21
100
AcDbEntity
100
AcDbBlockEnd
0
BLOCK
5
1C
100
AcDbEntity
100
AcDbBlockBegin
2
*PAPER_SPACE
0
ENDBLK
5
1D
100
AcDbEntity
100
AcDbBlockEnd
0
ENDSEC
0
SECTION
2
ENTITIES
0
LINE
5
100
100
AcDbEntity
8
0
100
AcDbLine
10
10.52500001490116
20
23.075000014901171
30
0
11
29.575000014901171
21
23.075000014901171
31
0
0
LINE
5
101
100
AcDbEntity
8
0
100
AcDbLine
10
-27.574999985098838
20
-47.575000014901164
30
0
11
-48.625000014901161
21
-47.575000014901164
31
0
0
CIRCLE
5
102
100
AcDbEntity
8
0
100
AcDbCircle
10
-51.124999999999986
20
-50.075000000000003
30
0
40
1.7000000000000042
210
0
220
-0
230
1
0
LWPOLYLINE
5
103
100
AcDbEntity
8
0
100
AcDbPolyline
90
8
70
1
43
0.0
10
69.07701217581662
20
25.397033109617976
10
69.191618864569918
20
-25.862922377924168
42
0.41355886614194809
10
70.191616365192445
20
-26.860686589749605
10
76.593000879168585
20
-26.860686589749541
42
0.41421356237309243
10
77.593000879168585
20
-25.860686589749555
10
77.593000879168756
20
19.371487498893256
42
0.35336566102435252
10
72.421966821910956
20
25.774686147128151
10
70.349415557532026
20
26.361451331609537
42
0.49823071191655449
0
LINE
5
104
100
AcDbEntity
8
0
100
AcDbLine
10
-29.57500001490116
20
23.575000014901168
30
0
11
-10.525000014901158
21
23.575000014901168
31
0
0
LINE
5
105
100
AcDbEntity
8
0
100
AcDbLine
10
-29.57500001490116
20
11.575000014901155
30
0
11
-29.57500001490116
21
23.575000014901168
31
0
0
CIRCLE
5
106
100
AcDbEntity
8
0
100
AcDbCircle
10
-18.930872726200626
20
32.076524567574076
30
0
40
1.7000000000000042
210
0
220
-0
230
1
0
LINE
5
107
100
AcDbEntity
8
0
100
AcDbLine
10
16.679238500450836
20
-55.125000014901168
30
0
11
-3.2391090149011603
21
-55.125000014901168
31
0
0
LINE
5
108
100
AcDbEntity
8
0
100
AcDbLine
10
-48.625000014901161
20
-47.575000014901164
30
0
11
-48.625000014901161
21
11.575000014901162
31
0
0
CIRCLE
5
109
100
AcDbEntity
8
0
100
AcDbCircle
10
-18.211996651886256
20
-50.578128296659877
30
0
40
1.7000000000000042
210
0
220
-0
230
1
0
CIRCLE
5
110
100
AcDbEntity
8
0
100
AcDbCircle
10
-51.125
20
10.181267704619675
30
0
40
1.7000000000000042
210
0
220
-0
230
1
0
LINE
5
111
100
AcDbEntity
8
0
100
AcDbLine
10
-27.574999985098838
20
-35.575000014901178
30
0
11
-27.574999985098838
21
-47.575000014901164
31
0
0
LINE
5
112
100
AcDbEntity
8
0
100
AcDbLine
10
50.459561938354518
20
-69.013515531450579
30
0
11
34.825792392437464
21
-59.987354475666834
31
0
0
LINE
5
113
100
AcDbEntity
8
0
100
AcDbLine
10
29.575000014901171
20
23.075000014901171
30
0
11
29.575000014901171
21
20.575000014901175
31
0
0
LINE
5
114
100
AcDbEntity
8
0
100
AcDbLine
10
47.625000004124622
20
30.493819329672963
30
0
11
47.625000014901168
21
20.575000014901171
31
0
0
CIRCLE
5
115
100
AcDbEntity
8
0
100
AcDbCircle
10
71.123060036718741
20
-41.958750719153208
30
0
40
1.7000000000000042
210
0
220
-0
230
1
0
CIRCLE
5
116
100
AcDbEntity
8
0
100
AcDbCircle
10
72.184913982671944
20
-22.860686589749591
30
0
40
1.7000000000000042
210
0
220
-0
230
1
0
LINE
5
117
100
AcDbEntity
8
0
100
AcDbLine
10
79.293000879168545
20
-40.097715532907038
30
0
11
79.293000879168545
21
-39.766839597954899
31
0
0
CIRCLE
5
118
100
AcDbEntity
8
0
100
AcDbCircle
10
18.593471836341028
20
32.073374083806108
30
0
40
1.7000000000000042
210
0
220
-0
230
1
0
LINE
5
119
100
AcDbEntity
8
0
100
AcDbLine
10
69.65453923821849
20
-38.766839597954863
30
0
11
76.593000879168542
21
-38.766839597954892
31
0
0
LINE
5
120
100
AcDbEntity
8
0
100
AcDbLine
10
66.613087357040101
20
-43.034788784931777
30
0
11
51.825587342138959
21
-68.647490127666146
31
0
0
CIRCLE
5
121
100
AcDbEntity
8
0
100
AcDbCircle
10
53.734195417407193
20
-72.070548207377499
30
0
40
1.7000000000000042
210
0
220
-0
230
1
0
CIRCLE
5
122
100
AcDbEntity
8
0
100
AcDbCircle
10
72.184916482055684
20
20.139313410250416
30
0
40
1.7000000000000042
210
0
220
-0
230
1
0
CIRCLE
5
123
100
AcDbEntity
8
0
100
AcDbCircle
10
43.179417830196847
20
26.599540908276225
30
0
40
1.7000000000000042
210
0
220
-0
230
1
0
LINE
5
124
100
AcDbEntity
8
0
100
AcDbLine
10
34.825792392437464
20
-59.987354475666834
30
0
11
16.679238500450836
21
-55.125000014901168
31
0
0
LINE
5
125
100
AcDbEntity
8
0
100
AcDbLine
10
29.575000014901171
20
20.575000014901175
30
0
11
47.625000014901168
21
20.575000014901171
31
0
0
LINE
5
126
100
AcDbEntity
8
0
100
AcDbLine
10
-3.2391090149011603
20
-55.125000014901168
30
0
11
-11.23910901490116
21
-35.575000014901164
31
0
0
LINE
5
127
100
AcDbEntity
8
0
100
AcDbLine
10
-48.625000014901161
20
11.575000014901162
30
0
11
-29.57500001490116
21
11.575000014901155
31
0
0
LINE
5
128
100
AcDbEntity
8
0
100
AcDbLine
10
-10.525000014901158
20
23.575000014901168
30
0
11
-10.525000014901165
21
29.575000014901171
31
0
0
LINE
5
129
100
AcDbEntity
8
0
100
AcDbLine
10
10.52500001490116
20
29.575000014901171
30
0
11
10.52500001490116
21
23.075000014901171
31
0
0
LINE
5
130
100
AcDbEntity
8
0
100
AcDbLine
10
-10.525000014901165
20
29.575000014901171
30
0
11
10.52500001490116
21
29.575000014901171
31
0
0
LINE
5
131
100
AcDbEntity
8
0
100
AcDbLine
10
19.906941882580981
20
37.46683222202897
30
0
11
46.092566660459646
21
31.636845380483429
31
0
0
ARC
5
132
100
AcDbEntity
8
0
100
AcDbCircle
10
18.483497648299434
20
31.073374119257785
30
0
40
6.5499999999999918
210
0
220
-0
230
1
100
AcDbArc
50
77.448343528336238
51
89.995175458340512
0
LINE
5
133
100
AcDbEntity
8
0
100
AcDbLine
10
-18.622531343337965
20
37.626498623630582
30
0
11
18.4840491853952
21
37.623374096036926
31
0
0
ARC
5
134
100
AcDbEntity
8
0
100
AcDbCircle
10
-18.623082880433731
20
31.076498646851441
30
0
40
6.5499999999999945
210
0
220
-0
230
1
100
AcDbArc
50
89.995175458340512
51
124.21965748406281
0
LINE
5
135
100
AcDbEntity
8
0
100
AcDbLine
10
-53.808504544536973
20
15.068128889004262
30
0
11
-22.306587424970715
21
36.492612961595491
31
0
0
ARC
5
136
100
AcDbEntity
8
0
100
AcDbCircle
10
-50.124999999999993
20
9.6520145742602121
30
0
40
6.5500000000000007
210
0
220
0
230
1
100
AcDbArc
50
124.21965748406279
51
180
0
LINE
5
137
100
AcDbEntity
8
0
100
AcDbLine
10
-56.674999999999997
20
-49.075000000000003
30
0
11
-56.674999999999997
21
9.6520145742602121
31
0
0
ARC
5
138
100
AcDbEntity
8
0
100
AcDbCircle
10
-50.124999999999993
20
-49.075000000000003
30
0
40
6.5500000000000025
210
0
220
0
230
1
100
AcDbArc
50
180
51
270
0
LINE
5
139
100
AcDbEntity
8
0
100
AcDbLine
10
-50.124999999999993
20
-55.625000000000007
30
0
11
-23.487140527437003
21
-55.625000000000099
31
0
0
ARC
5
140
100
AcDbEntity
8
0
100
AcDbCircle
10
-23.487140527437013
20
-69.075000000000088
30
0
40
13.449999999999996
210
0
220
-0
230
1
100
AcDbArc
50
65.128640082631236
51
89.999999999999943
0
LINE
5
141
100
AcDbEntity
8
0
100
AcDbLine
10
26.303676749624021
20
-77.331934188164439
30
0
11
-17.830307753529745
21
-56.872428837820841
31
0
0
ARC
5
142
100
AcDbEntity
8
0
100
AcDbCircle
10
29.058491223162481
20
-71.389418120337481
30
0
40
6.5499999999998826
210
0
220
0
230
1
100
AcDbArc
50
245.12864008263099
51
270.78076435098183
0
LINE
5
143
100
AcDbEntity
8
0
100
AcDbLine
10
53.25171318179671
20
-77.610327078423325
30
0
11
29.14774471219139
21
-77.938809986357924
31
0
0
ARC
5
144
100
AcDbEntity
8
0
100
AcDbCircle
10
53.162459692767797
20
-71.060935212402796
30
0
40
6.5499999999999838
210
0
220
0
230
1
100
AcDbArc
50
270.78076435098183
51
329.99456280345282
0
LINE
5
145
100
AcDbEntity
8
0
100
AcDbLine
10
76.715156460800074
20
-43.373253818100238
30
0
11
58.834615274399326
21
-74.336473497595961
31
0
0
ARC
5
146
100
AcDbEntity
8
0
100
AcDbCircle
10
71.043000879168545
20
-40.097715532907046
30
0
40
6.5499999999999972
210
0
220
0
230
1
100
AcDbArc
50
-30.005437196547405
51
0
0
LINE
5
147
100
AcDbEntity
8
0
100
AcDbLine
10
46.092566660459646
20
31.636845380483429
30
0
11
46.842319734549278
21
31.469919802292019
31
0
0
ARC
5
148
100
AcDbEntity
8
0
100
AcDbCircle
10
46.62500000412463
20
30.49381932858649
30
0
40
0.99999999999999645
210
0
220
-0
230
1
100
AcDbArc
50
0
51
77.448343528337148
0
LINE
5
149
100
AcDbEntity
8
0
100
AcDbLine
10
77.593000879168542
20
-40.097715532907038
30
0
11
77.593000879168542
21
-39.766839597954892
31
0
0
ARC
5
150
100
AcDbEntity
8
0
100
AcDbCircle
10
76.593000879168528
20
-39.766839597954892
30
0
40
1.0000000000000053
210
0
220
-0
230
1
100
AcDbArc
50
0
51
89.99999999999919
0
LINE
5
151
100
AcDbEntity
8
0
100
AcDbLine
10
66.613087357040101
20
-43.034788784931777
30
0
11
68.788513834434056
21
-39.266839597954863
31
0
0
ARC
5
152
100
AcDbEntity
8
0
100
AcDbCircle
10
69.654539238218476
20
-39.766839597954835
30
0
40
0.99999999999997424
210
0
220
-0
230
1
100
AcDbArc
50
89.99999999999919
51
150.00000000000085
0
LINE
5
153
100
AcDbEntity
8
0
100
AcDbLine
10
-27.574999985098838
20
-35.575000014901178
30
0
11
-11.23910901490116
21
-35.575000014901164
31
0
0
CIRCLE
5
154
100
AcDbEntity
8
0
100
AcDbCircle
10
28.497705440723749
20
-72.231677384402474
30
0
40
1.7000000000000042
210
0
220
-0
230
1
0
ARC
5
155
100
AcDbEntity
8
0
100
AcDbCircle
10
50.959561938354518
20
-68.147490127666131
30
0
40
1.0000000000000027
210
0
220
0
230
1
100
AcDbArc
50
240.00000000000023
51
329.99999999999937
0
ENDSEC
0
SECTION
2
OBJECTS
0
DICTIONARY
5
C
100
AcDbDictionary
3
ACAD_GROUP
350
D
3
ACAD_MLINESTYLE
350
17
0
DICTIONARY
5
D
100
AcDbDictionary
0
DICTIONARY
5
1A
330
C
100
AcDbDictionary
0
DICTIONARY
5
17
100
AcDbDictionary
0
ENDSEC
0
EOF
