0
SECTION
2
HEADER
9
$INSUNITS
70
4
9
$ACADVER
1
AC1014
9
$HANDSEED
5
FFFF
0
ENDSEC
0
SECTION
2
TABLES
0
TABLE
2
VPORT
5
8
100
AcDbSymbolTable
0
ENDTAB
0
TABLE
2
LTYPE
5
5
100
AcDbSymbolTable
0
LTYPE
5
14
100
AcDbSymbolTableRecord
100
AcDbLinetypeTableRecord
2
BYBLOCK
70
0
0
LTYPE
5
15
100
AcDbSymbolTableRecord
100
AcDbLinetypeTableRecord
2
BYLAYER
70
0
0
ENDTAB
0
TABLE
2
LAYER
5
2
100
AcDbSymbolTable
70
2
0
LAYER
5
50
100
AcDbSymbolTableRecord
100
AcDbLayerTableRecord
2
0
70
0
6
CONTINUOUS
0
ENDTAB
0
TABLE
2
STYLE
5
3
100
AcDbSymbolTable
70
1
0
STYLE
5
11
100
AcDbSymbolTableRecord
100
AcDbTextStyleTableRecord
2
STANDARD
70
0
0
ENDTAB
0
TABLE
2
VIEW
5
6
100
AcDbSymbolTable
70
0
0
ENDTAB
0
TABLE
2
UCS
5
7
100
AcDbSymbolTable
70
0
0
ENDTAB
0
TABLE
2
APPID
5
9
100
AcDbSymbolTable
70
2
0
APPID
5
12
100
AcDbSymbolTableRecord
100
AcDbRegAppTableRecord
2
ACAD
70
0
0
ENDTAB
0
TABLE
2
DIMSTYLE
5
A
100
AcDbSymbolTable
70
1
0
ENDTAB
0
TABLE
2
BLOCK_RECORD
5
1
100
AcDbSymbolTable
70
1
0
BLOCK_RECORD
5
1F
100
AcDbSymbolTableRecord
100
AcDbBlockTableRecord
2
*MODEL_SPACE
0
BLOCK_RECORD
5
1B
100
AcDbSymbolTableRecord
100
AcDbBlockTableRecord
2
*PAPER_SPACE
0
ENDTAB
0
ENDSEC
0
SECTION
2
BLOCKS
0
BLOCK
5
20
100
AcDbEntity
100
AcDbBlockBegin
2
*MODEL_SPACE
0
ENDBLK
5
21
100
AcDbEntity
100
AcDbBlockEnd
0
BLOCK
5
1C
100
AcDbEntity
100
AcDbBlockBegin
2
*PAPER_SPACE
0
ENDBLK
5
1D
100
AcDbEntity
100
AcDbBlockEnd
0
ENDSEC
0
SECTION
2
ENTITIES
0
LWPOLYLINE
5
100
100
AcDbEntity
8
0
100
AcDbPolyline
90
21
70
1
43
0.0
10
69.786457796793343
20
24.396092168871242
10
45.647061213089117
20
29.635839409387096
10
19.461436435210405
20
35.465826250932651
42
0.054800640788989129
10
18.483876566914734
20
35.573374103304531
10
-18.622703961818292
20
35.576498630898186
42
0.15045251333657761
10
-21.153734857596326
20
34.797493214232993
10
-52.655651977162854
20
13.373009141641585
42
0.24831022847739218
10
-54.624999999999993
20
9.6520145742602104
10
-54.624999999999993
20
-49.075000000000003
42
0.41421356237309509
10
-50.124999999999993
20
-53.57500000000001
10
-23.48714052743702
20
-53.575000000000088
42
-0.10894981599553764
10
-16.968113910666563
20
-55.012557396745194
10
27.165870592487224
20
-75.472062747088799
42
0.11239827448961437
10
29.119810414098389
20
-75.889000318366797
10
53.22377888370368
20
-75.560517410432169
42
0.26427580782168369
10
57.05936047404137
20
-73.311305026657664
10
74.939901660442104
20
-42.348085347161906
42
0.13167663310588221
10
75.543000879168545
20
-40.097715532907046
10
75.543000879168588
20
-25.860686589749548
10
75.543000879168758
20
19.371487498893256
42
0.351411974254836
10
72.020939666079812
20
23.763939630568256
0
CIRCLE
5
101
100
AcDbEntity
8
0
100
AcDbCircle
10
72.184913982671944
20
-22.860686589749591
30
0
40
1.1000000000000014
210
0
220
-0
230
1
0
CIRCLE
5
102
100
AcDbEntity
8
0
100
AcDbCircle
10
72.184916482055684
20
20.139313410250416
30
0
40
1.1000000000000014
210
0
220
-0
230
1
0
CIRCLE
5
103
100
AcDbEntity
8
0
100
AcDbCircle
10
28.497705440723749
20
-72.231677384402474
30
0
40
1.1000000000000014
210
0
220
-0
230
1
0
CIRCLE
5
104
100
AcDbEntity
8
0
100
AcDbCircle
10
43.179417830196847
20
26.599540908276225
30
0
40
1.1000000000000014
210
0
220
-0
230
1
0
CIRCLE
5
105
100
AcDbEntity
8
0
100
AcDbCircle
10
71.123060036718741
20
-41.958750719153208
30
0
40
1.1000000000000014
210
0
220
-0
230
1
0
CIRCLE
5
106
100
AcDbEntity
8
0
100
AcDbCircle
10
53.734195417407207
20
-72.070548207377513
30
0
40
1.1000000000000014
210
0
220
-0
230
1
0
CIRCLE
5
107
100
AcDbEntity
8
0
100
AcDbCircle
10
18.593471836341028
20
32.073374083806108
30
0
40
1.1000000000000014
210
0
220
-0
230
1
0
CIRCLE
5
108
100
AcDbEntity
8
0
100
AcDbCircle
10
-51.125
20
10.181267704619675
30
0
40
1.1000000000000014
210
0
220
-0
230
1
0
CIRCLE
5
109
100
AcDbEntity
8
0
100
AcDbCircle
10
-18.930872726200626
20
32.076524567574076
30
0
40
1.1000000000000014
210
0
220
-0
230
1
0
CIRCLE
5
110
100
AcDbEntity
8
0
100
AcDbCircle
10
-18.211996651886256
20
-50.578128296659877
30
0
40
1.1000000000000014
210
0
220
-0
230
1
0
CIRCLE
5
111
100
AcDbEntity
8
0
100
AcDbCircle
10
-51.124999999999986
20
-50.075000000000003
30
0
40
1.1000000000000014
210
0
220
-0
230
1
0
LWPOLYLINE
5
112
100
AcDbEntity
8
0
100
AcDbPolyline
90
4
70
1
43
0.0
10
69.000001028180122
20
-16.000000238418579
10
64.000000953674316
20
-16.000000238418579
10
64.000000953674316
20
-26.000000387430191
10
69.000001028180122
20
-26.000000387430191
0
ENDSEC
0
SECTION
2
OBJECTS
0
DICTIONARY
5
C
100
AcDbDictionary
3
ACAD_GROUP
350
D
3
ACAD_MLINESTYLE
350
17
0
DICTIONARY
5
D
100
AcDbDictionary
0
DICTIONARY
5
1A
330
C
100
AcDbDictionary
0
DICTIONARY
5
17
100
AcDbDictionary
0
ENDSEC
0
EOF
