0
SECTION
2
HEADER
9
$INSUNITS
70
4
9
$ACADVER
1
AC1014
9
$HANDSEED
5
FFFF
0
ENDSEC
0
SECTION
2
TABLES
0
TABLE
2
VPORT
5
8
100
AcDbSymbolTable
0
ENDTAB
0
TABLE
2
LTYPE
5
5
100
AcDbSymbolTable
0
LTYPE
5
14
100
AcDbSymbolTableRecord
100
AcDbLinetypeTableRecord
2
BYBLOCK
70
0
0
LTYPE
5
15
100
AcDbSymbolTableRecord
100
AcDbLinetypeTableRecord
2
BYLAYER
70
0
0
ENDTAB
0
TABLE
2
LAYER
5
2
100
AcDbSymbolTable
70
2
0
LAYER
5
50
100
AcDbSymbolTableRecord
100
AcDbLayerTableRecord
2
0
70
0
6
CONTINUOUS
0
ENDTAB
0
TABLE
2
STYLE
5
3
100
AcDbSymbolTable
70
1
0
STYLE
5
11
100
AcDbSymbolTableRecord
100
AcDbTextStyleTableRecord
2
STANDARD
70
0
0
ENDTAB
0
TABLE
2
VIEW
5
6
100
AcDbSymbolTable
70
0
0
ENDTAB
0
TABLE
2
UCS
5
7
100
AcDbSymbolTable
70
0
0
ENDTAB
0
TABLE
2
APPID
5
9
100
AcDbSymbolTable
70
2
0
APPID
5
12
100
AcDbSymbolTableRecord
100
AcDbRegAppTableRecord
2
ACAD
70
0
0
ENDTAB
0
TABLE
2
DIMSTYLE
5
A
100
AcDbSymbolTable
70
1
0
ENDTAB
0
TABLE
2
BLOCK_RECORD
5
1
100
AcDbSymbolTable
70
1
0
BLOCK_RECORD
5
1F
100
AcDbSymbolTableRecord
100
AcDbBlockTableRecord
2
*MODEL_SPACE
0
BLOCK_RECORD
5
1B
100
AcDbSymbolTableRecord
100
AcDbBlockTableRecord
2
*PAPER_SPACE
0
ENDTAB
0
ENDSEC
0
SECTION
2
BLOCKS
0
BLOCK
5
20
100
AcDbEntity
100
AcDbBlockBegin
2
*MODEL_SPACE
0
ENDBLK
5
21
100
AcDbEntity
100
AcDbBlockEnd
0
BLOCK
5
1C
100
AcDbEntity
100
AcDbBlockBegin
2
*PAPER_SPACE
0
ENDBLK
5
1D
100
AcDbEntity
100
AcDbBlockEnd
0
ENDSEC
0
SECTION
2
ENTITIES
0
LWPOLYLINE
5
100
100
AcDbEntity
8
0
100
AcDbPolyline
90
10
70
1
43
0.0
10
70.191616365192445
20
-26.860686589749605
42
-0.41355886614194809
10
69.191618864569918
20
-25.862922377924168
10
69.070152769308379
20
28.465029193512372
10
69.069862697583659
20
28.426439226059983
42
-0.49037467116185846
10
70.327293080145949
20
29.385211994614657
10
70.286457796793343
20
29.396092168871245
10
73.107538318203027
20
28.644441999095747
42
-0.35141197425483917
10
80.543000879168744
20
19.371487498893252
10
80.543000879168574
20
-25.860686589749548
42
-0.41421356237309109
10
79.543000879168588
20
-26.86068658974953
0
LINE
5
101
100
AcDbEntity
8
0
100
AcDbLine
10
69.654539238218547
20
-38.766839597954863
30
0
11
79.536558503372277
21
-38.766839597954899
31
0
0
CIRCLE
5
102
100
AcDbEntity
8
0
100
AcDbCircle
10
53.734195417407193
20
-72.070548207377499
30
0
40
1.7000000000000042
210
0
220
-0
230
1
0
ARC
5
103
100
AcDbEntity
8
0
100
AcDbCircle
10
-18.623082880433731
20
31.076498646851441
30
0
40
9.4999999999999964
210
0
220
-0
230
1
100
AcDbArc
50
89.995175458340256
51
124.21965748406357
0
LINE
5
104
100
AcDbEntity
8
0
100
AcDbLine
10
-55.467487507343797
20
17.507447549843128
30
0
11
-23.965570387777554
21
38.931931622434341
31
0
0
ARC
5
105
100
AcDbEntity
8
0
100
AcDbCircle
10
53.162459692767797
20
-71.060935212402796
30
0
40
9.4999999999999787
210
-0
220
0
230
1
100
AcDbArc
50
270.78076435098171
51
329.99456280345265
0
LINE
5
106
100
AcDbEntity
8
0
100
AcDbLine
10
20.548035087333716
20
40.34632861946028
30
0
11
46.73365986521236
21
34.516341777914739
31
0
0
LINE
5
107
100
AcDbEntity
8
0
100
AcDbLine
10
25.06295878062577
20
-80.008334554590377
30
0
11
-19.071025722527985
21
-59.548829204246786
31
0
0
ARC
5
108
100
AcDbEntity
8
0
100
AcDbCircle
10
29.058491223162481
20
-71.389418120337481
30
0
40
9.4999999999998899
210
0
220
0
230
1
100
AcDbArc
50
245.12864008263111
51
270.7807643509816
0
LINE
5
109
100
AcDbEntity
8
0
100
AcDbLine
10
53.291911318076892
20
-80.560053186020355
30
0
11
29.187942848471558
21
-80.888536093954968
31
0
0
LINE
5
110
100
AcDbEntity
8
0
100
AcDbLine
10
79.269791417412733
20
-44.848496251889536
30
0
11
61.389250231011985
21
-75.811715931385265
31
0
0
ARC
5
111
100
AcDbEntity
8
0
100
AcDbCircle
10
71.043000879168545
20
-40.097715532907046
30
0
40
9.4999999999999911
210
-0
220
0
230
1
100
AcDbArc
50
-30.005437196547454
51
2.2308924242866501
0
ARC
5
112
100
AcDbEntity
8
0
100
AcDbCircle
10
50.959561938354568
20
-68.147490127666174
30
0
40
0.99999999999998734
210
0
220
0
230
1
100
AcDbArc
50
240.00000000000023
51
330.00000000000063
0
LINE
5
113
100
AcDbEntity
8
0
100
AcDbLine
10
-18.622282941134486
20
40.57649861317234
30
0
11
18.484297587598707
21
40.573374085578678
31
0
0
CIRCLE
5
114
100
AcDbEntity
8
0
100
AcDbCircle
10
-51.124999999999986
20
-50.075000000000003
30
0
40
1.7000000000000042
210
0
220
-0
230
1
0
CIRCLE
5
115
100
AcDbEntity
8
0
100
AcDbCircle
10
72.184913982671944
20
-22.860686589749591
30
0
40
1.7000000000000042
210
0
220
-0
230
1
0
ARC
5
116
100
AcDbEntity
8
0
100
AcDbCircle
10
18.483497648299434
20
31.073374119257785
30
0
40
9.4999999999999929
210
0
220
-0
230
1
100
AcDbArc
50
77.448343528336395
51
89.995175458340071
0
LINE
5
117
100
AcDbEntity
8
0
100
AcDbLine
10
-50.124999999999993
20
-58.57500000000001
30
0
11
-23.487140527437013
21
-58.57500000000001
31
0
0
ARC
5
118
100
AcDbEntity
8
0
100
AcDbCircle
10
-50.124999999999993
20
-49.075000000000003
30
0
40
9.5000000000000018
210
0
220
0
230
1
100
AcDbArc
50
180
51
270
0
LINE
5
119
100
AcDbEntity
8
0
100
AcDbLine
10
-59.624999999999993
20
-49.075000000000003
30
0
11
-59.624999999999993
21
9.6520145742602139
31
0
0
LINE
5
120
100
AcDbEntity
8
0
100
AcDbLine
10
69.070152769308379
20
28.465029193512372
30
0
11
69.130885816939141
21
1.3010534077943614
31
0
0
ARC
5
121
100
AcDbEntity
8
0
100
AcDbCircle
10
-23.487140527437013
20
-69.075000000000088
30
0
40
10.499999999999991
210
0
220
-0
230
1
100
AcDbArc
50
65.128640082631151
51
90
0
CIRCLE
5
122
100
AcDbEntity
8
0
100
AcDbCircle
10
72.184916482055684
20
20.139313410250416
30
0
40
1.7000000000000042
210
0
220
-0
230
1
0
LINE
5
123
100
AcDbEntity
8
0
100
AcDbLine
10
46.73365986521236
20
34.516341777914739
30
0
11
46.842319730424663
21
34.492149665266467
31
0
0
ARC
5
124
100
AcDbEntity
8
0
100
AcDbCircle
10
-50.124999999999993
20
9.6520145742602121
30
0
40
9.5000000000000036
210
0
220
0
230
1
100
AcDbArc
50
124.21965748406345
51
180
0
CIRCLE
5
125
100
AcDbEntity
8
0
100
AcDbCircle
10
-51.125
20
10.181267704619675
30
0
40
1.7000000000000042
210
0
220
-0
230
1
0
LINE
5
126
100
AcDbEntity
8
0
100
AcDbLine
10
80.543000879168545
20
-40.097715532907038
30
0
11
80.543000879168545
21
-39.49725352858389
31
0
0
ARC
5
127
100
AcDbEntity
8
0
100
AcDbCircle
10
79.536558503372262
20
-39.766839597954906
30
0
40
1.0000000000000058
210
0
220
-0
230
1
100
AcDbArc
50
2.2308924242871404
51
89.99999999999919
0
LWPOLYLINE
5
128
100
AcDbEntity
8
0
100
AcDbPolyline
90
8
70
1
43
0.0
10
53.662177826491089
20
-60.146152422706649
42
-0.41421356237309509
10
52.296152422706655
20
-60.512177826491104
10
41.903847577293398
20
-54.512177826491083
42
-0.41421356237308926
10
41.537822173508943
20
-53.146152422706656
10
47.537822173508943
20
-42.753847577293371
42
-0.41421356237309853
10
48.903847577293391
20
-42.387822173508951
10
59.296152422706641
20
-48.38782217350893
42
-0.41421356237309148
10
59.662177826491103
20
-49.753847577293385
0
LWPOLYLINE
5
129
100
AcDbEntity
8
0
100
AcDbPolyline
90
8
70
1
43
0.0
10
1.2859999999999983
20
-51.600000000000001
10
13.286
20
-51.600000000000009
42
0.41421356237310092
10
14.285999999999996
20
-50.600000000000016
10
14.286000000000001
20
-38.600000000000001
42
0.41421356237309509
10
13.286
20
-37.600000000000001
10
1.2860000000000007
20
-37.600000000000001
42
0.41421356237309298
10
0.2859999999999997
20
-38.600000000000001
10
0.28599999999999931
20
-50.600000000000016
42
0.41421356237308793
0
LWPOLYLINE
5
130
100
AcDbEntity
8
0
100
AcDbPolyline
90
8
70
1
43
0.0
10
24.496178357983247
20
-39.075604945361377
10
36.08728827345206
20
-42.181433486591622
42
-0.41421356237309853
10
36.794395054638599
20
-43.406178357983222
10
33.688566513408354
20
-54.99728827345205
42
-0.41421356237310325
10
32.463821642016761
20
-55.704395054638603
10
20.872711726547944
20
-52.598566513408343
42
-0.41421356237310081
10
20.165604945361398
20
-51.373821642016757
10
23.271433486591647
20
-39.782711726547923
42
-0.41421356237309337
0
LWPOLYLINE
5
131
100
AcDbEntity
8
0
100
AcDbPolyline
90
8
70
1
43
0.0
10
45.100000000000009
20
-15.000000000000007
10
45.100000000000009
20
-2.9999999999999982
42
0.41421356237309581
10
44.100000000000001
20
-1.999999999999992
10
32.100000000000001
20
-2.0000000000000009
42
0.41421356237309731
10
31.100000000000001
20
-3.0000000000000004
10
31.100000000000001
20
-15
42
0.4142135623730977
10
32.100000000000001
20
-16
10
44.100000000000001
20
-16
42
0.41421356237308654
0
LWPOLYLINE
5
132
100
AcDbEntity
8
0
100
AcDbPolyline
90
8
70
1
43
0.0
10
45.099999999999994
20
16.050000000000004
42
0.41421356237309698
10
44.100000000000001
20
17.050000000000011
10
32.100000000000001
20
17.050000000000004
42
0.4142135623730977
10
31.100000000000001
20
16.050000000000001
10
31.100000000000001
20
4.049999999999998
42
0.41421356237309553
10
32.100000000000009
20
3.0500000000000012
10
44.100000000000001
20
3.0500000000000007
42
0.41421356237308737
10
45.100000000000009
20
4.049999999999998
0
CIRCLE
5
133
100
AcDbEntity
8
0
100
AcDbCircle
10
-18.930872726200626
20
32.076524567574076
30
0
40
1.7000000000000042
210
0
220
-0
230
1
0
LWPOLYLINE
5
134
100
AcDbEntity
8
0
100
AcDbPolyline
90
8
70
1
43
0.0
10
-44.100000000000001
20
8.0500000000000025
10
-32.100000000000001
20
8.0500000000000007
42
-0.41421356237308954
10
-31.100000000000001
20
7.0500000000000007
10
-31.099999999999998
20
-4.9500000000000002
42
-0.41421356237309959
10
-32.100000000000001
20
-5.950000000000002
10
-44.100000000000001
20
-5.9500000000000082
42
-0.41421356237309537
10
-45.100000000000009
20
-4.9500000000000011
10
-45.100000000000009
20
7.0500000000000007
42
-0.41421356237309959
0
LWPOLYLINE
5
135
100
AcDbEntity
8
0
100
AcDbPolyline
90
8
70
1
43
0.0
10
-25.050000000000008
20
20.049999999999997
42
0.4142135623730957
10
-26.050000000000004
20
19.050000000000004
10
-26.050000000000004
20
7.0500000000000007
42
0.41421356237309959
10
-25.050000000000004
20
6.0500000000000007
10
-13.050000000000001
20
6.0499999999999989
42
0.41421356237309309
10
-12.050000000000001
20
7.0499999999999989
10
-12.050000000000002
20
19.050000000000004
42
0.4142135623730937
10
-13.050000000000001
20
20.050000000000004
0
LWPOLYLINE
5
136
100
AcDbEntity
8
0
100
AcDbPolyline
90
8
70
1
43
0.0
10
-12.050000000000001
20
-31.060000000000013
10
-12.050000000000002
20
-19.059999999999999
42
0.4142135623730937
10
-13.050000000000001
20
-18.060000000000002
10
-25.050000000000008
20
-18.060000000000002
42
0.4142135623730957
10
-26.050000000000004
20
-19.059999999999999
10
-26.050000000000008
20
-31.059999999999999
42
0.4142135623730937
10
-25.050000000000008
20
-32.060000000000002
10
-13.050000000000001
20
-32.060000000000002
42
0.41421356237309048
0
CIRCLE
5
137
100
AcDbEntity
8
0
100
AcDbCircle
10
43.179417830196847
20
26.599540908276225
30
0
40
1.7000000000000042
210
0
220
-0
230
1
0
LWPOLYLINE
5
138
100
AcDbEntity
8
0
100
AcDbPolyline
90
8
70
1
43
0.0
10
7.0000000000000018
20
13.049999999999997
10
7
20
25.050000000000008
42
0.4142135623730957
10
6.0000000000000009
20
26.050000000000004
10
-6.0000000000000009
20
26.050000000000004
42
0.41421356237309992
10
-7.0000000000000018
20
25.050000000000004
10
-7.0000000000000036
20
13.050000000000001
42
0.4142135623730957
10
-6.0000000000000009
20
12.050000000000001
10
6.0000000000000009
20
12.050000000000001
42
0.41421356237309409
0
LWPOLYLINE
5
139
100
AcDbEntity
8
0
100
AcDbPolyline
90
8
70
1
43
0.0
10
25.050000000000008
20
0.50000000000000488
10
13.050000000000001
20
0.50000000000000444
42
0.41421356237309453
10
12.050000000000001
20
-0.50000000000000044
10
12.050000000000001
20
-12.5
42
0.4142135623730937
10
13.050000000000001
20
-13.5
10
25.050000000000008
20
-13.5
42
0.4142135623730957
10
26.050000000000004
20
-12.500000000000002
10
26.050000000000004
20
-0.49999999999999606
42
0.41421356237309614
0
LWPOLYLINE
5
140
100
AcDbEntity
8
0
100
AcDbPolyline
90
8
70
1
43
0.0
10
-44.100000000000001
20
-44.050000000000004
10
-32.100000000000001
20
-44.049999999999997
42
0.4142135623730977
10
-31.099999999999994
20
-43.049999999999997
10
-31.100000000000001
20
-31.050000000000004
42
0.4142135623730937
10
-32.100000000000001
20
-30.050000000000008
10
-44.100000000000001
20
-30.050000000000008
42
0.41421356237308726
10
-45.100000000000009
20
-31.050000000000004
10
-45.100000000000009
20
-43.049999999999997
42
0.4142135623731002
0
LWPOLYLINE
5
141
100
AcDbEntity
8
0
100
AcDbPolyline
90
8
70
1
43
0.0
10
26.050000000000004
20
6.549999999999998
10
26.050000000000004
20
18.550000000000004
42
0.4142135623730957
10
25.050000000000008
20
19.550000000000004
10
13.050000000000001
20
19.550000000000008
42
0.41421356237309509
10
12.050000000000001
20
18.550000000000001
10
12.050000000000001
20
6.549999999999998
42
0.41421356237309509
10
13.050000000000001
20
5.549999999999998
10
25.050000000000008
20
5.5499999999999989
42
0.4142135623730957
0
LWPOLYLINE
5
142
100
AcDbEntity
8
0
100
AcDbPolyline
90
8
70
1
43
0.0
10
-6.0000000000000009
20
7.0000000000000027
42
0.41421356237309509
10
-7.0000000000000018
20
6
10
-7.0000000000000018
20
-6.0000000000000018
42
0.41421356237309731
10
-6.0000000000000009
20
-7.0000000000000018
10
6.0000000000000009
20
-7.0000000000000018
42
0.41421356237309437
10
7.0000000000000018
20
-6.0000000000000044
10
7.0000000000000009
20
6.0000000000000018
42
0.41421356237309637
10
6.0000000000000009
20
7.0000000000000018
0
CIRCLE
5
143
100
AcDbEntity
8
0
100
AcDbCircle
10
-18.211996651886256
20
-50.578128296659877
30
0
40
1.7000000000000042
210
0
220
-0
230
1
0
LWPOLYLINE
5
144
100
AcDbEntity
8
0
100
AcDbPolyline
90
8
70
1
43
0.0
10
-44.100000000000001
20
-25
10
-32.100000000000001
20
-24.999999999999996
42
0.4142135623730977
10
-31.099999999999994
20
-24.000000000000004
10
-31.100000000000001
20
-11.999999999999993
42
0.41421356237309959
10
-32.100000000000001
20
-10.999999999999995
10
-44.100000000000001
20
-10.999999999999996
42
0.41421356237308787
10
-45.100000000000009
20
-11.999999999999995
10
-45.100000000000009
20
-24.000000000000004
42
0.4142135623730977
0
LWPOLYLINE
5
145
100
AcDbEntity
8
0
100
AcDbPolyline
90
8
70
1
43
0.0
10
-13.050000000000001
20
-13.000000000000007
42
0.41421356237309698
10
-12.050000000000001
20
-12.000000000000009
10
-12.050000000000002
20
-1.4449906680425224e-16
42
0.41421356237309415
10
-13.050000000000001
20
0.99999999999999967
10
-25.050000000000008
20
1.0000000000000013
42
0.41421356237309448
10
-26.050000000000004
20
-2.2204460492503131e-15
10
-26.050000000000004
20
-12.000000000000002
42
0.41421356237309509
10
-25.050000000000008
20
-13.000000000000007
0
LWPOLYLINE
5
146
100
AcDbEntity
8
0
100
AcDbPolyline
90
8
70
1
43
0.0
10
-7.0000000000000018
20
-13.050000000000006
10
-7.0000000000000018
20
-25.050000000000008
42
0.41421356237309637
10
-6.0000000000000009
20
-26.050000000000004
10
6.0000000000000009
20
-26.050000000000004
42
0.41421356237309409
10
7.0000000000000018
20
-25.050000000000008
10
7.0000000000000018
20
-13.050000000000001
42
0.4142135623730937
10
6.0000000000000009
20
-12.050000000000001
10
-6.0000000000000009
20
-12.050000000000001
42
0.41421356237309537
0
LWPOLYLINE
5
147
100
AcDbEntity
8
0
100
AcDbPolyline
90
8
70
1
43
0.0
10
25.050000000000008
20
-18.550000000000001
10
13.050000000000001
20
-18.550000000000001
42
0.41421356237309825
10
12.050000000000001
20
-19.550000000000004
10
12.050000000000002
20
-31.550000000000004
42
0.41421356237309825
10
13.050000000000001
20
-32.550000000000011
10
25.050000000000008
20
-32.550000000000004
42
0.4142135623730937
10
26.050000000000004
20
-31.550000000000011
10
26.050000000000004
20
-19.550000000000001
42
0.4142135623730957
0
CIRCLE
5
148
100
AcDbEntity
8
0
100
AcDbCircle
10
18.593471836341028
20
32.073374083806108
30
0
40
1.7000000000000042
210
0
220
-0
230
1
0
CIRCLE
5
149
100
AcDbEntity
8
0
100
AcDbCircle
10
-51.124999999999986
20
-50.075000000000003
30
0
40
1.7000000000000042
210
0
220
-0
230
1
0
LWPOLYLINE
5
150
100
AcDbEntity
8
0
100
AcDbPolyline
90
8
70
1
43
0.0
10
44.100000000000001
20
-21.050000000000001
10
32.100000000000001
20
-21.050000000000004
42
0.41421356237309109
10
31.100000000000001
20
-22.050000000000001
10
31.100000000000001
20
-34.050000000000004
42
0.41421356237310281
10
32.100000000000001
20
-35.050000000000011
10
44.100000000000001
20
-35.050000000000011
42
0.4142135623730937
10
45.100000000000009
20
-34.050000000000004
10
45.100000000000009
20
-22.050000000000001
42
0.41421356237309892
0
ARC
5
151
100
AcDbEntity
8
0
100
AcDbCircle
10
57.620515599751542
20
-37.766839597954913
30
0
40
0.99999999999990641
210
0
220
0
230
1
100
AcDbArc
50
239.99456280345137
51
270.00000000000119
0
LINE
5
152
100
AcDbEntity
8
0
100
AcDbLine
10
47.625000000000021
20
33.516049191560938
30
0
11
47.625000000000021
21
-32.572137986197738
31
0
0
LINE
5
153
100
AcDbEntity
8
0
100
AcDbLine
10
48.124917819054495
20
-33.438115937591853
30
0
11
57.120433418806044
21
-38.63281754934895
31
0
0
CIRCLE
5
154
100
AcDbEntity
8
0
100
AcDbCircle
10
71.123060036718741
20
-41.958750719153208
30
0
40
1.7000000000000042
210
0
220
-0
230
1
0
CIRCLE
5
155
100
AcDbEntity
8
0
100
AcDbCircle
10
28.497705440723749
20
-72.231677384402474
30
0
40
1.7000000000000042
210
0
220
-0
230
1
0
ARC
5
156
100
AcDbEntity
8
0
100
AcDbCircle
10
48.625000000000007
20
-32.572137986197745
30
0
40
0.99999999999998757
210
0
220
0
230
1
100
AcDbArc
50
180
51
239.99456280345291
0
ARC
5
157
100
AcDbEntity
8
0
100
AcDbCircle
10
46.625000000000007
20
33.516049191560924
30
0
40
1.0000000000000142
210
0
220
-0
230
1
100
AcDbArc
50
0
51
77.448343528336935
0
LINE
5
158
100
AcDbEntity
8
0
100
AcDbLine
10
69.654539238218547
20
-38.766839597954863
30
0
11
57.620515599751563
21
-38.766839597954814
31
0
0
ENDSEC
0
SECTION
2
OBJECTS
0
DICTIONARY
5
C
100
AcDbDictionary
3
ACAD_GROUP
350
D
3
ACAD_MLINESTYLE
350
17
0
DICTIONARY
5
D
100
AcDbDictionary
0
DICTIONARY
5
1A
330
C
100
AcDbDictionary
0
DICTIONARY
5
17
100
AcDbDictionary
0
ENDSEC
0
EOF
