0
SECTION
2
HEADER
9
$INSUNITS
70
4
9
$ACADVER
1
AC1014
9
$HANDSEED
5
FFFF
0
ENDSEC
0
SECTION
2
TABLES
0
TABLE
2
VPORT
5
8
100
AcDbSymbolTable
0
ENDTAB
0
TABLE
2
LTYPE
5
5
100
AcDbSymbolTable
0
LTYPE
5
14
100
AcDbSymbolTableRecord
100
AcDbLinetypeTableRecord
2
BYBLOCK
70
0
0
LTYPE
5
15
100
AcDbSymbolTableRecord
100
AcDbLinetypeTableRecord
2
BYLAYER
70
0
0
ENDTAB
0
TABLE
2
LAYER
5
2
100
AcDbSymbolTable
70
2
0
LAYER
5
50
100
AcDbSymbolTableRecord
100
AcDbLayerTableRecord
2
0
70
0
6
CONTINUOUS
0
ENDTAB
0
TABLE
2
STYLE
5
3
100
AcDbSymbolTable
70
1
0
STYLE
5
11
100
AcDbSymbolTableRecord
100
AcDbTextStyleTableRecord
2
STANDARD
70
0
0
ENDTAB
0
TABLE
2
VIEW
5
6
100
AcDbSymbolTable
70
0
0
ENDTAB
0
TABLE
2
UCS
5
7
100
AcDbSymbolTable
70
0
0
ENDTAB
0
TABLE
2
APPID
5
9
100
AcDbSymbolTable
70
2
0
APPID
5
12
100
AcDbSymbolTableRecord
100
AcDbRegAppTableRecord
2
ACAD
70
0
0
ENDTAB
0
TABLE
2
DIMSTYLE
5
A
100
AcDbSymbolTable
70
1
0
ENDTAB
0
TABLE
2
BLOCK_RECORD
5
1
100
AcDbSymbolTable
70
1
0
BLOCK_RECORD
5
1F
100
AcDbSymbolTableRecord
100
AcDbBlockTableRecord
2
*MODEL_SPACE
0
BLOCK_RECORD
5
1B
100
AcDbSymbolTableRecord
100
AcDbBlockTableRecord
2
*PAPER_SPACE
0
ENDTAB
0
ENDSEC
0
SECTION
2
BLOCKS
0
BLOCK
5
20
100
AcDbEntity
100
AcDbBlockBegin
2
*MODEL_SPACE
0
ENDBLK
5
21
100
AcDbEntity
100
AcDbBlockEnd
0
BLOCK
5
1C
100
AcDbEntity
100
AcDbBlockBegin
2
*PAPER_SPACE
0
ENDBLK
5
1D
100
AcDbEntity
100
AcDbBlockEnd
0
ENDSEC
0
SECTION
2
ENTITIES
0
LINE
5
100
100
AcDbEntity
8
0
100
AcDbLine
10
29.575000014901171
20
23.075000014901171
30
0
11
29.575000014901171
21
20.575000014901175
31
0
0
LINE
5
101
100
AcDbEntity
8
0
100
AcDbLine
10
10.52500001490116
20
23.075000014901171
30
0
11
29.575000014901171
21
23.075000014901171
31
0
0
LINE
5
102
100
AcDbEntity
8
0
100
AcDbLine
10
10.52500001490116
20
29.575000014901171
30
0
11
10.52500001490116
21
23.075000014901171
31
0
0
LINE
5
103
100
AcDbEntity
8
0
100
AcDbLine
10
-10.525000014901165
20
29.575000014901171
30
0
11
10.52500001490116
21
29.575000014901171
31
0
0
LINE
5
104
100
AcDbEntity
8
0
100
AcDbLine
10
-10.525000014901158
20
23.575000014901168
30
0
11
-10.525000014901165
21
29.575000014901171
31
0
0
LINE
5
105
100
AcDbEntity
8
0
100
AcDbLine
10
-29.57500001490116
20
23.575000014901168
30
0
11
-10.525000014901158
21
23.575000014901168
31
0
0
LINE
5
106
100
AcDbEntity
8
0
100
AcDbLine
10
-29.57500001490116
20
11.575000014901155
30
0
11
-29.57500001490116
21
23.575000014901168
31
0
0
LINE
5
107
100
AcDbEntity
8
0
100
AcDbLine
10
-48.625000014901161
20
11.575000014901162
30
0
11
-29.57500001490116
21
11.575000014901155
31
0
0
LINE
5
108
100
AcDbEntity
8
0
100
AcDbLine
10
-48.625000014901161
20
-47.575000014901164
30
0
11
-48.625000014901161
21
11.575000014901162
31
0
0
LINE
5
109
100
AcDbEntity
8
0
100
AcDbLine
10
-27.574999985098838
20
-47.575000014901164
30
0
11
-48.625000014901161
21
-47.575000014901164
31
0
0
LINE
5
110
100
AcDbEntity
8
0
100
AcDbLine
10
-27.574999985098838
20
-35.575000014901178
30
0
11
-27.574999985098838
21
-47.575000014901164
31
0
0
LINE
5
111
100
AcDbEntity
8
0
100
AcDbLine
10
-9.5250000000000021
20
-35.575000014901164
30
0
11
-27.574999985098838
21
-35.575000014901178
31
0
0
LINE
5
112
100
AcDbEntity
8
0
100
AcDbLine
10
-9.5250000000000021
20
-35.575000014901164
30
0
11
-3.2391090149011603
21
-35.575000014901164
31
0
0
LINE
5
113
100
AcDbEntity
8
0
100
AcDbLine
10
-3.2391090149011603
20
-55.125000014901168
30
0
11
-3.2391090149011603
21
-35.575000014901164
31
0
0
LINE
5
114
100
AcDbEntity
8
0
100
AcDbLine
10
16.679238500450836
20
-55.125000014901168
30
0
11
-3.2391090149011603
21
-55.125000014901168
31
0
0
LINE
5
115
100
AcDbEntity
8
0
100
AcDbLine
10
34.825792392437464
20
-59.987354475666834
30
0
11
16.679238500450836
21
-55.125000014901168
31
0
0
LINE
5
116
100
AcDbEntity
8
0
100
AcDbLine
10
52.075587342138967
20
-69.946528233342789
30
0
11
34.825792392437464
21
-59.987354475666834
31
0
0
LINE
5
117
100
AcDbEntity
8
0
100
AcDbLine
10
67.363087357040087
20
-43.467801486823994
30
0
11
52.075587342138967
21
-69.946528233342789
31
0
0
LINE
5
118
100
AcDbEntity
8
0
100
AcDbLine
10
20.548035087333716
20
40.34632861946028
30
0
11
46.73365986521236
21
34.516341777914739
31
0
0
ARC
5
119
100
AcDbEntity
8
0
100
AcDbCircle
10
18.483497648299434
20
31.073374119257785
30
0
40
9.4999999999999929
210
0
220
-0
230
1
100
AcDbArc
50
77.448343528336395
51
89.995175458340071
0
LINE
5
120
100
AcDbEntity
8
0
100
AcDbLine
10
-18.622282941134486
20
40.57649861317234
30
0
11
18.484297587598707
21
40.573374085578678
31
0
0
ARC
5
121
100
AcDbEntity
8
0
100
AcDbCircle
10
-18.623082880433731
20
31.076498646851441
30
0
40
9.4999999999999964
210
0
220
-0
230
1
100
AcDbArc
50
89.995175458340256
51
124.21965748406357
0
LINE
5
122
100
AcDbEntity
8
0
100
AcDbLine
10
-55.467487507343797
20
17.507447549843128
30
0
11
-23.965570387777554
21
38.931931622434341
31
0
0
ARC
5
123
100
AcDbEntity
8
0
100
AcDbCircle
10
-50.124999999999993
20
9.6520145742602121
30
0
40
9.5000000000000036
210
0
220
0
230
1
100
AcDbArc
50
124.21965748406345
51
180
0
LINE
5
124
100
AcDbEntity
8
0
100
AcDbLine
10
-59.624999999999993
20
-49.075000000000003
30
0
11
-59.624999999999993
21
9.6520145742602139
31
0
0
ARC
5
125
100
AcDbEntity
8
0
100
AcDbCircle
10
-50.124999999999993
20
-49.075000000000003
30
0
40
9.5000000000000018
210
0
220
0
230
1
100
AcDbArc
50
180
51
270
0
LINE
5
126
100
AcDbEntity
8
0
100
AcDbLine
10
-50.124999999999993
20
-58.57500000000001
30
0
11
-23.487140527437013
21
-58.57500000000001
31
0
0
ARC
5
127
100
AcDbEntity
8
0
100
AcDbCircle
10
-23.487140527437013
20
-69.075000000000088
30
0
40
10.499999999999991
210
0
220
-0
230
1
100
AcDbArc
50
65.128640082631151
51
90
0
LINE
5
128
100
AcDbEntity
8
0
100
AcDbLine
10
25.06295878062577
20
-80.008334554590377
30
0
11
-19.071025722527985
21
-59.548829204246786
31
0
0
ARC
5
129
100
AcDbEntity
8
0
100
AcDbCircle
10
29.058491223162481
20
-71.389418120337481
30
0
40
9.4999999999998899
210
0
220
0
230
1
100
AcDbArc
50
245.12864008263111
51
270.7807643509816
0
LINE
5
130
100
AcDbEntity
8
0
100
AcDbLine
10
53.291911318076892
20
-80.560053186020355
30
0
11
29.187942848471558
21
-80.888536093954968
31
0
0
ARC
5
131
100
AcDbEntity
8
0
100
AcDbCircle
10
53.162459692767797
20
-71.060935212402796
30
0
40
9.4999999999999787
210
-0
220
0
230
1
100
AcDbArc
50
270.78076435098171
51
329.99456280345265
0
LINE
5
132
100
AcDbEntity
8
0
100
AcDbLine
10
79.269791417412733
20
-44.848496251889536
30
0
11
61.389250231011985
21
-75.811715931385265
31
0
0
ARC
5
133
100
AcDbEntity
8
0
100
AcDbCircle
10
71.043000879168545
20
-40.097715532907046
30
0
40
9.4999999999999911
210
-0
220
0
230
1
100
AcDbArc
50
-30.005437196547454
51
2.2308924242866501
0
LWPOLYLINE
5
134
100
AcDbEntity
8
0
100
AcDbPolyline
90
10
70
1
43
0.0
10
69.070152769308379
20
28.465029193512365
10
69.191618864569918
20
-25.862922377924168
42
0.41355886614194809
10
70.191616365192445
20
-26.860686589749605
10
79.543000879168588
20
-26.86068658974953
42
0.41421356237309109
10
80.543000879168574
20
-25.860686589749548
10
80.543000879168744
20
19.371487498893252
42
0.35141197425483917
10
73.107538318203055
20
28.644441999095896
10
70.286457796793343
20
29.396092168871245
10
70.327293080145949
20
29.385211994614657
42
0.49037467116185846
10
69.069862697583659
20
28.426439226059983
0
CIRCLE
5
135
100
AcDbEntity
8
0
100
AcDbCircle
10
72.184913982671944
20
-22.860686589749591
30
0
40
1.7000000000000042
210
0
220
-0
230
1
0
CIRCLE
5
136
100
AcDbEntity
8
0
100
AcDbCircle
10
72.184916482055684
20
20.139313410250416
30
0
40
1.7000000000000042
210
0
220
-0
230
1
0
CIRCLE
5
137
100
AcDbEntity
8
0
100
AcDbCircle
10
43.179417830196847
20
26.599540908276225
30
0
40
1.7000000000000042
210
0
220
-0
230
1
0
CIRCLE
5
138
100
AcDbEntity
8
0
100
AcDbCircle
10
18.593471836341028
20
32.073374083806108
30
0
40
1.7000000000000042
210
0
220
-0
230
1
0
CIRCLE
5
139
100
AcDbEntity
8
0
100
AcDbCircle
10
-18.930872726200626
20
32.076524567574076
30
0
40
1.7000000000000042
210
0
220
-0
230
1
0
CIRCLE
5
140
100
AcDbEntity
8
0
100
AcDbCircle
10
-51.125
20
10.181267704619675
30
0
40
1.7000000000000042
210
0
220
-0
230
1
0
CIRCLE
5
141
100
AcDbEntity
8
0
100
AcDbCircle
10
-51.124999999999986
20
-50.075000000000003
30
0
40
1.7000000000000042
210
0
220
-0
230
1
0
CIRCLE
5
142
100
AcDbEntity
8
0
100
AcDbCircle
10
-18.211996651886256
20
-50.578128296659877
30
0
40
1.7000000000000042
210
0
220
-0
230
1
0
CIRCLE
5
143
100
AcDbEntity
8
0
100
AcDbCircle
10
28.497705440723749
20
-72.231677384402474
30
0
40
1.7000000000000042
210
0
220
-0
230
1
0
CIRCLE
5
144
100
AcDbEntity
8
0
100
AcDbCircle
10
53.734195417407193
20
-72.070548207377499
30
0
40
1.7000000000000042
210
0
220
-0
230
1
0
CIRCLE
5
145
100
AcDbEntity
8
0
100
AcDbCircle
10
71.123060036718741
20
-41.958750719153208
30
0
40
1.7000000000000042
210
0
220
-0
230
1
0
LINE
5
146
100
AcDbEntity
8
0
100
AcDbLine
10
59.220782521073687
20
-38.766839597954821
30
0
11
79.536558503372277
21
-38.766839597954899
31
0
0
ARC
5
147
100
AcDbEntity
8
0
100
AcDbCircle
10
79.536558503372262
20
-39.766839597954906
30
0
40
1.0000000000000058
210
0
220
-0
230
1
100
AcDbArc
50
2.2308924242871404
51
89.99999999999919
0
LINE
5
148
100
AcDbEntity
8
0
100
AcDbLine
10
67.363087357040087
20
-43.467801486823994
30
0
11
59.220782521073687
21
-38.766839597954821
31
0
0
LINE
5
149
100
AcDbEntity
8
0
100
AcDbLine
10
47.625000014901168
20
20.575000014901178
30
0
11
47.625000014901168
21
33.51604918824151
31
0
0
LINE
5
150
100
AcDbEntity
8
0
100
AcDbLine
10
46.73365986521236
20
34.516341777914739
30
0
11
46.842319745324026
21
34.492149661949263
31
0
0
ARC
5
151
100
AcDbEntity
8
0
100
AcDbCircle
10
46.625000014898887
20
33.516049188241517
30
0
40
1.0000000000022791
210
-0
220
0
230
1
100
AcDbArc
50
0
51
77.448343528337332
0
LINE
5
152
100
AcDbEntity
8
0
100
AcDbLine
10
29.575000014901171
20
20.575000014901175
30
0
11
47.625000014901168
21
20.575000014901178
31
0
0
ENDSEC
0
SECTION
2
OBJECTS
0
DICTIONARY
5
C
100
AcDbDictionary
3
ACAD_GROUP
350
D
3
ACAD_MLINESTYLE
350
17
0
DICTIONARY
5
D
100
AcDbDictionary
0
DICTIONARY
5
1A
330
C
100
AcDbDictionary
0
DICTIONARY
5
17
100
AcDbDictionary
0
ENDSEC
0
EOF
