0
SECTION
2
HEADER
9
$INSUNITS
70
4
9
$ACADVER
1
AC1014
9
$HANDSEED
5
FFFF
0
ENDSEC
0
SECTION
2
TABLES
0
TABLE
2
VPORT
5
8
100
AcDbSymbolTable
0
ENDTAB
0
TABLE
2
LTYPE
5
5
100
AcDbSymbolTable
0
LTYPE
5
14
100
AcDbSymbolTableRecord
100
AcDbLinetypeTableRecord
2
BYBLOCK
70
0
0
LTYPE
5
15
100
AcDbSymbolTableRecord
100
AcDbLinetypeTableRecord
2
BYLAYER
70
0
0
ENDTAB
0
TABLE
2
LAYER
5
2
100
AcDbSymbolTable
70
2
0
LAYER
5
50
100
AcDbSymbolTableRecord
100
AcDbLayerTableRecord
2
0
70
0
6
CONTINUOUS
0
ENDTAB
0
TABLE
2
STYLE
5
3
100
AcDbSymbolTable
70
1
0
STYLE
5
11
100
AcDbSymbolTableRecord
100
AcDbTextStyleTableRecord
2
STANDARD
70
0
0
ENDTAB
0
TABLE
2
VIEW
5
6
100
AcDbSymbolTable
70
0
0
ENDTAB
0
TABLE
2
UCS
5
7
100
AcDbSymbolTable
70
0
0
ENDTAB
0
TABLE
2
APPID
5
9
100
AcDbSymbolTable
70
2
0
APPID
5
12
100
AcDbSymbolTableRecord
100
AcDbRegAppTableRecord
2
ACAD
70
0
0
ENDTAB
0
TABLE
2
DIMSTYLE
5
A
100
AcDbSymbolTable
70
1
0
ENDTAB
0
TABLE
2
BLOCK_RECORD
5
1
100
AcDbSymbolTable
70
1
0
BLOCK_RECORD
5
1F
100
AcDbSymbolTableRecord
100
AcDbBlockTableRecord
2
*MODEL_SPACE
0
BLOCK_RECORD
5
1B
100
AcDbSymbolTableRecord
100
AcDbBlockTableRecord
2
*PAPER_SPACE
0
ENDTAB
0
ENDSEC
0
SECTION
2
BLOCKS
0
BLOCK
5
20
100
AcDbEntity
100
AcDbBlockBegin
2
*MODEL_SPACE
0
ENDBLK
5
21
100
AcDbEntity
100
AcDbBlockEnd
0
BLOCK
5
1C
100
AcDbEntity
100
AcDbBlockBegin
2
*PAPER_SPACE
0
ENDBLK
5
1D
100
AcDbEntity
100
AcDbBlockEnd
0
ENDSEC
0
SECTION
2
ENTITIES
0
LWPOLYLINE
5
100
100
AcDbEntity
8
0
100
AcDbPolyline
90
8
70
1
43
0.0
10
25.050000000000008
20
-32.550000000000004
42
0.4142135623730937
10
26.050000000000004
20
-31.550000000000011
10
26.050000000000004
20
-19.550000000000001
42
0.4142135623730957
10
25.050000000000008
20
-18.550000000000001
10
13.050000000000001
20
-18.550000000000001
42
0.41421356237309825
10
12.050000000000001
20
-19.550000000000004
10
12.050000000000002
20
-31.550000000000004
42
0.41421356237309825
10
13.050000000000001
20
-32.550000000000011
0
LWPOLYLINE
5
101
100
AcDbEntity
8
0
100
AcDbPolyline
90
8
70
1
43
0.0
10
13.286
20
-37.600000000000001
10
1.2860000000000007
20
-37.600000000000001
42
0.41421356237309298
10
0.2859999999999997
20
-38.600000000000001
10
0.28599999999999931
20
-50.600000000000016
42
0.41421356237308793
10
1.2859999999999983
20
-51.600000000000001
10
13.286
20
-51.600000000000009
42
0.41421356237310092
10
14.285999999999996
20
-50.600000000000016
10
14.286000000000001
20
-38.600000000000001
42
0.41421356237309509
0
LWPOLYLINE
5
102
100
AcDbEntity
8
0
100
AcDbPolyline
90
8
70
1
43
0.0
10
20.165604945361398
20
-51.373821642016757
10
23.271433486591647
20
-39.782711726547923
42
-0.41421356237309337
10
24.496178357983247
20
-39.075604945361377
10
36.08728827345206
20
-42.181433486591622
42
-0.41421356237309853
10
36.794395054638599
20
-43.406178357983222
10
33.688566513408354
20
-54.99728827345205
42
-0.41421356237310325
10
32.463821642016761
20
-55.704395054638603
10
20.872711726547944
20
-52.598566513408343
42
-0.41421356237310081
0
LWPOLYLINE
5
103
100
AcDbEntity
8
0
100
AcDbPolyline
90
8
70
1
43
0.0
10
48.903847577293391
20
-42.387822173508951
10
59.296152422706641
20
-48.38782217350893
42
-0.41421356237309148
10
59.662177826491103
20
-49.753847577293385
10
53.662177826491089
20
-60.146152422706649
42
-0.41421356237309509
10
52.296152422706655
20
-60.512177826491104
10
41.903847577293398
20
-54.512177826491083
42
-0.41421356237308926
10
41.537822173508943
20
-53.146152422706656
10
47.537822173508943
20
-42.753847577293371
42
-0.41421356237309853
0
LWPOLYLINE
5
104
100
AcDbEntity
8
0
100
AcDbPolyline
90
8
70
1
43
0.0
10
31.100000000000001
20
-34.050000000000004
42
0.41421356237310281
10
32.100000000000001
20
-35.050000000000011
10
44.100000000000001
20
-35.050000000000011
42
0.4142135623730937
10
45.100000000000009
20
-34.050000000000004
10
45.100000000000009
20
-22.050000000000001
42
0.41421356237309892
10
44.100000000000001
20
-21.050000000000001
10
32.100000000000001
20
-21.050000000000004
42
0.41421356237309109
10
31.100000000000001
20
-22.050000000000001
0
LWPOLYLINE
5
105
100
AcDbEntity
8
0
100
AcDbPolyline
90
8
70
1
43
0.0
10
-6.0000000000000009
20
7.0000000000000027
42
0.41421356237309509
10
-7.0000000000000018
20
6
10
-7.0000000000000018
20
-6.0000000000000018
42
0.41421356237309731
10
-6.0000000000000009
20
-7.0000000000000018
10
6.0000000000000009
20
-7.0000000000000018
42
0.41421356237309437
10
7.0000000000000018
20
-6.0000000000000044
10
7.0000000000000009
20
6.0000000000000018
42
0.41421356237309637
10
6.0000000000000009
20
7.0000000000000018
0
LWPOLYLINE
5
106
100
AcDbEntity
8
0
100
AcDbPolyline
90
8
70
1
43
0.0
10
-25.050000000000004
20
6.0500000000000007
10
-13.050000000000001
20
6.0499999999999989
42
0.41421356237309309
10
-12.050000000000001
20
7.0499999999999989
10
-12.050000000000002
20
19.050000000000004
42
0.4142135623730937
10
-13.050000000000001
20
20.050000000000004
10
-25.050000000000008
20
20.049999999999997
42
0.4142135623730957
10
-26.050000000000004
20
19.050000000000004
10
-26.050000000000004
20
7.0500000000000007
42
0.41421356237309959
0
LWPOLYLINE
5
107
100
AcDbEntity
8
0
100
AcDbPolyline
90
8
70
1
43
0.0
10
25.050000000000008
20
-13.5
42
0.4142135623730957
10
26.050000000000004
20
-12.500000000000002
10
26.050000000000004
20
-0.49999999999999606
42
0.41421356237309614
10
25.050000000000008
20
0.50000000000000488
10
13.050000000000001
20
0.50000000000000444
42
0.41421356237309453
10
12.050000000000001
20
-0.50000000000000044
10
12.050000000000001
20
-12.5
42
0.4142135623730937
10
13.050000000000001
20
-13.5
0
LWPOLYLINE
5
108
100
AcDbEntity
8
0
100
AcDbPolyline
90
8
70
1
43
0.0
10
-12.050000000000001
20
-31.060000000000013
10
-12.050000000000002
20
-19.059999999999999
42
0.4142135623730937
10
-13.050000000000001
20
-18.060000000000002
10
-25.050000000000008
20
-18.060000000000002
42
0.4142135623730957
10
-26.050000000000004
20
-19.059999999999999
10
-26.050000000000008
20
-31.059999999999999
42
0.4142135623730937
10
-25.050000000000008
20
-32.060000000000002
10
-13.050000000000001
20
-32.060000000000002
42
0.41421356237309048
0
LWPOLYLINE
5
109
100
AcDbEntity
8
0
100
AcDbPolyline
90
8
70
1
43
0.0
10
-7.0000000000000018
20
-25.050000000000008
42
0.41421356237309637
10
-6.0000000000000009
20
-26.050000000000004
10
6.0000000000000009
20
-26.050000000000004
42
0.41421356237309409
10
7.0000000000000018
20
-25.050000000000008
10
7.0000000000000018
20
-13.050000000000001
42
0.4142135623730937
10
6.0000000000000009
20
-12.050000000000001
10
-6.0000000000000009
20
-12.050000000000001
42
0.41421356237309537
10
-7.0000000000000018
20
-13.050000000000006
0
LWPOLYLINE
5
110
100
AcDbEntity
8
0
100
AcDbPolyline
90
8
70
1
43
0.0
10
-12.050000000000002
20
-1.4449906680425224e-16
42
0.41421356237309415
10
-13.050000000000001
20
0.99999999999999967
10
-25.050000000000008
20
1.0000000000000013
42
0.41421356237309448
10
-26.050000000000004
20
-2.2204460492503131e-15
10
-26.050000000000004
20
-12.000000000000002
42
0.41421356237309509
10
-25.050000000000008
20
-13.000000000000007
10
-13.050000000000001
20
-13.000000000000007
42
0.41421356237309698
10
-12.050000000000001
20
-12.000000000000009
0
LWPOLYLINE
5
111
100
AcDbEntity
8
0
100
AcDbPolyline
90
8
70
1
43
0.0
10
-45.100000000000009
20
-31.050000000000004
10
-45.100000000000009
20
-43.049999999999997
42
0.4142135623731002
10
-44.100000000000001
20
-44.050000000000004
10
-32.100000000000001
20
-44.049999999999997
42
0.4142135623730977
10
-31.099999999999994
20
-43.049999999999997
10
-31.100000000000001
20
-31.050000000000004
42
0.4142135623730937
10
-32.100000000000001
20
-30.050000000000008
10
-44.100000000000001
20
-30.050000000000008
42
0.41421356237308726
0
LWPOLYLINE
5
112
100
AcDbEntity
8
0
100
AcDbPolyline
90
8
70
1
43
0.0
10
-44.100000000000001
20
-25
10
-32.100000000000001
20
-24.999999999999996
42
0.4142135623730977
10
-31.099999999999994
20
-24.000000000000004
10
-31.100000000000001
20
-11.999999999999993
42
0.41421356237309959
10
-32.100000000000001
20
-10.999999999999995
10
-44.100000000000001
20
-10.999999999999996
42
0.41421356237308787
10
-45.100000000000009
20
-11.999999999999995
10
-45.100000000000009
20
-24.000000000000004
42
0.4142135623730977
0
LWPOLYLINE
5
113
100
AcDbEntity
8
0
100
AcDbPolyline
90
8
70
1
43
0.0
10
32.100000000000009
20
3.0500000000000012
10
44.100000000000001
20
3.0500000000000007
42
0.41421356237308737
10
45.100000000000009
20
4.049999999999998
10
45.099999999999994
20
16.050000000000004
42
0.41421356237309698
10
44.100000000000001
20
17.050000000000011
10
32.100000000000001
20
17.050000000000004
42
0.4142135623730977
10
31.100000000000001
20
16.050000000000001
10
31.100000000000001
20
4.049999999999998
42
0.41421356237309553
0
LWPOLYLINE
5
114
100
AcDbEntity
8
0
100
AcDbPolyline
90
8
70
1
43
0.0
10
12.050000000000001
20
6.549999999999998
42
0.41421356237309509
10
13.050000000000001
20
5.549999999999998
10
25.050000000000008
20
5.5499999999999989
42
0.4142135623730957
10
26.050000000000004
20
6.549999999999998
10
26.050000000000004
20
18.550000000000004
42
0.4142135623730957
10
25.050000000000008
20
19.550000000000004
10
13.050000000000001
20
19.550000000000008
42
0.41421356237309509
10
12.050000000000001
20
18.550000000000001
0
LWPOLYLINE
5
115
100
AcDbEntity
8
0
100
AcDbPolyline
90
8
70
1
43
0.0
10
6.0000000000000009
20
26.050000000000004
10
-6.0000000000000009
20
26.050000000000004
42
0.41421356237309992
10
-7.0000000000000018
20
25.050000000000004
10
-7.0000000000000036
20
13.050000000000001
42
0.4142135623730957
10
-6.0000000000000009
20
12.050000000000001
10
6.0000000000000009
20
12.050000000000001
42
0.41421356237309409
10
7.0000000000000018
20
13.049999999999997
10
7
20
25.050000000000008
42
0.4142135623730957
0
LWPOLYLINE
5
116
100
AcDbEntity
8
0
100
AcDbPolyline
90
8
70
1
43
0.0
10
31.100000000000001
20
-15
42
0.4142135623730977
10
32.100000000000001
20
-16
10
44.100000000000001
20
-16
42
0.41421356237308654
10
45.100000000000009
20
-15.000000000000007
10
45.100000000000009
20
-2.9999999999999982
42
0.41421356237309581
10
44.100000000000001
20
-1.999999999999992
10
32.100000000000001
20
-2.0000000000000009
42
0.41421356237309731
10
31.100000000000001
20
-3.0000000000000004
0
LWPOLYLINE
5
117
100
AcDbEntity
8
0
100
AcDbPolyline
90
8
70
1
43
0.0
10
-45.100000000000009
20
7.0500000000000007
42
-0.41421356237309959
10
-44.100000000000001
20
8.0500000000000025
10
-32.100000000000001
20
8.0500000000000007
42
-0.41421356237308954
10
-31.100000000000001
20
7.0500000000000007
10
-31.099999999999998
20
-4.9500000000000002
42
-0.41421356237309959
10
-32.100000000000001
20
-5.950000000000002
10
-44.100000000000001
20
-5.9500000000000082
42
-0.41421356237309537
10
-45.100000000000009
20
-4.9500000000000011
0
ARC
5
118
100
AcDbEntity
8
0
100
AcDbCircle
10
-50.124999999999993
20
9.6520145742602121
30
0
40
10.000000000000002
210
0
220
0
230
1
100
AcDbArc
50
124.2196574840636
51
180
0
LINE
5
119
100
AcDbEntity
8
0
100
AcDbLine
10
-55.748671060361914
20
17.920891390663265
30
0
11
-24.246753940795649
21
39.345375463254506
31
0
0
ARC
5
120
100
AcDbEntity
8
0
100
AcDbCircle
10
-18.623082880433731
20
31.076498646851441
30
0
40
9.9999999999999964
210
0
220
-0
230
1
100
AcDbArc
50
89.995175458340171
51
124.21965748406353
0
LINE
5
121
100
AcDbEntity
8
0
100
AcDbLine
10
-18.622240839066091
20
41.076498611399757
30
0
11
18.484339689667067
21
41.073374083806101
31
0
0
ARC
5
122
100
AcDbEntity
8
0
100
AcDbCircle
10
18.483497648299434
20
31.073374119257785
30
0
40
9.9999999999999964
210
0
220
-0
230
1
100
AcDbArc
50
77.448343528336395
51
89.995175458340114
0
ARC
5
123
100
AcDbEntity
8
0
100
AcDbCircle
10
71.043000879168758
20
19.371487498893256
30
0
40
10
210
-0
220
0
230
1
100
AcDbArc
50
0
51
77.44834352833648
0
ARC
5
124
100
AcDbEntity
8
0
100
AcDbCircle
10
71.043000879168545
20
-40.097715532907046
30
0
40
9.9999999999999947
210
-0
220
0
230
1
100
AcDbArc
50
-30.005437196547454
51
0
0
LINE
5
125
100
AcDbEntity
8
0
100
AcDbLine
10
79.702780393109805
20
-45.098537342362299
30
0
11
61.822239206709064
21
-76.061757021858043
31
0
0
ARC
5
126
100
AcDbEntity
8
0
100
AcDbCircle
10
53.162459692767797
20
-71.060935212402796
30
0
40
9.999999999999984
210
-0
220
0
230
1
100
AcDbArc
50
270.78076435098166
51
329.99456280345265
0
LINE
5
127
100
AcDbEntity
8
0
100
AcDbLine
10
53.298724561514206
20
-81.060006763579196
30
0
11
29.194756091908882
21
-81.388489671513824
31
0
0
ARC
5
128
100
AcDbEntity
8
0
100
AcDbCircle
10
29.058491223162481
20
-71.389418120337481
30
0
40
9.9999999999998863
210
0
220
0
230
1
100
AcDbArc
50
245.12864008263111
51
270.7807643509816
0
LINE
5
129
100
AcDbEntity
8
0
100
AcDbLine
10
24.852667599439627
20
-80.461961735340537
30
0
11
-19.281316903714135
21
-60.002456384996933
31
0
0
ARC
5
130
100
AcDbEntity
8
0
100
AcDbCircle
10
-23.487140527437013
20
-69.075000000000088
30
0
40
9.9999999999999947
210
0
220
-0
230
1
100
AcDbArc
50
65.128640082631179
51
89.999999999999972
0
LINE
5
131
100
AcDbEntity
8
0
100
AcDbLine
10
-50.124999999999993
20
-59.075000000000003
30
0
11
-23.487140527437013
21
-59.075000000000003
31
0
0
ARC
5
132
100
AcDbEntity
8
0
100
AcDbCircle
10
-50.124999999999993
20
-49.075000000000003
30
0
40
10
210
0
220
0
230
1
100
AcDbArc
50
180
51
270
0
LINE
5
133
100
AcDbEntity
8
0
100
AcDbLine
10
-60.124999999999993
20
-49.075000000000003
30
0
11
-60.124999999999993
21
9.6520145742602104
31
0
0
LINE
5
134
100
AcDbEntity
8
0
100
AcDbLine
10
20.65669495254604
20
40.834378856313045
30
0
11
46.842319730424684
21
35.004392014767504
31
0
0
LINE
5
135
100
AcDbEntity
8
0
100
AcDbLine
10
81.043000879168758
20
19.371487498893256
30
0
11
81.043000879167479
21
-25.855862307485218
31
0
0
ARC
5
136
100
AcDbEntity
8
0
100
AcDbCircle
10
46.625000000000043
20
34.028291541061996
30
0
40
0.99999999999997868
210
0
220
-0
230
1
100
AcDbArc
50
0
51
77.448343528337276
0
LINE
5
137
100
AcDbEntity
8
0
100
AcDbLine
10
47.625000000000021
20
34.028291541061996
30
0
11
47.625000000000021
21
-32.572137986197738
31
0
0
LINE
5
138
100
AcDbEntity
8
0
100
AcDbLine
10
69.220519622270174
20
-25.864580293826926
30
0
11
69.069390900523317
21
28.805851536515711
31
0
0
ARC
5
139
100
AcDbEntity
8
0
100
AcDbCircle
10
70.069387079709614
20
28.808615885345827
30
0
40
0.99999999999999101
210
0
220
-0
230
1
100
AcDbArc
50
77.44834352833702
51
180.15838572278727
0
ARC
5
140
100
AcDbEntity
8
0
100
AcDbCircle
10
48.625000000000007
20
-32.572137986197745
30
0
40
0.99999999999998757
210
0
220
0
230
1
100
AcDbArc
50
180
51
239.99456280345291
0
LINE
5
141
100
AcDbEntity
8
0
100
AcDbLine
10
48.124917819054495
20
-33.438115937591853
30
0
11
57.120433418806044
21
-38.63281754934895
31
0
0
ARC
5
142
100
AcDbEntity
8
0
100
AcDbCircle
10
57.620515599751542
20
-37.766839597954913
30
0
40
0.99999999999990641
210
0
220
0
230
1
100
AcDbArc
50
239.99456280345137
51
270.00000000000119
0
LINE
5
143
100
AcDbEntity
8
0
100
AcDbLine
10
70.221121924679437
20
-26.861815761310041
30
0
11
80.043607002383368
21
-26.855862123828416
31
0
0
ARC
5
144
100
AcDbEntity
8
0
100
AcDbCircle
10
70.220515801450574
20
-25.861815944995989
30
0
40
0.99999999999992673
210
0
220
0
230
1
100
AcDbArc
50
180.15838572283332
51
270.03472830500516
0
ARC
5
145
100
AcDbEntity
8
0
100
AcDbCircle
10
80.043000879156295
20
-25.855862307485786
30
0
40
1.0000000000353317
210
0
220
0
230
1
100
AcDbArc
50
-89.965271695098679
51
0
0
LINE
5
146
100
AcDbEntity
8
0
100
AcDbLine
10
57.620515599751563
20
-38.766839597954814
30
0
11
80.043000879168545
21
-38.766839597954913
31
0
0
ARC
5
147
100
AcDbEntity
8
0
100
AcDbCircle
10
80.043000879168545
20
-39.766839597954906
30
0
40
0.99999999999999645
210
0
220
-0
230
1
100
AcDbArc
50
0
51
90
0
LINE
5
148
100
AcDbEntity
8
0
100
AcDbLine
10
81.043000879168545
20
-39.766839597954899
30
0
11
81.043000879168545
21
-40.097715532907038
31
0
0
CIRCLE
5
149
100
AcDbEntity
8
0
100
AcDbCircle
10
71.123060036718741
20
-41.958750719153208
30
0
40
1.7000000000000042
210
0
220
-0
230
1
0
CIRCLE
5
150
100
AcDbEntity
8
0
100
AcDbCircle
10
53.734195417407193
20
-72.070548207377499
30
0
40
1.7000000000000042
210
0
220
-0
230
1
0
CIRCLE
5
151
100
AcDbEntity
8
0
100
AcDbCircle
10
28.497705440723749
20
-72.231677384402474
30
0
40
1.7000000000000042
210
0
220
-0
230
1
0
CIRCLE
5
152
100
AcDbEntity
8
0
100
AcDbCircle
10
-18.211996651886256
20
-50.578128296659877
30
0
40
1.7000000000000042
210
0
220
-0
230
1
0
CIRCLE
5
153
100
AcDbEntity
8
0
100
AcDbCircle
10
-51.124999999999986
20
-50.075000000000003
30
0
40
1.7000000000000042
210
0
220
-0
230
1
0
CIRCLE
5
154
100
AcDbEntity
8
0
100
AcDbCircle
10
-51.125
20
10.181267704619675
30
0
40
1.7000000000000042
210
0
220
-0
230
1
0
CIRCLE
5
155
100
AcDbEntity
8
0
100
AcDbCircle
10
-18.930872726200626
20
32.076524567574076
30
0
40
1.7000000000000042
210
0
220
-0
230
1
0
CIRCLE
5
156
100
AcDbEntity
8
0
100
AcDbCircle
10
18.593471836341028
20
32.073374083806108
30
0
40
1.7000000000000042
210
0
220
-0
230
1
0
CIRCLE
5
157
100
AcDbEntity
8
0
100
AcDbCircle
10
43.179417830196847
20
26.599540908276225
30
0
40
1.7000000000000042
210
0
220
-0
230
1
0
CIRCLE
5
158
100
AcDbEntity
8
0
100
AcDbCircle
10
72.093360488741268
20
20.13906031658032
30
0
40
1.7000000000000042
210
0
220
-0
230
1
0
CIRCLE
5
159
100
AcDbEntity
8
0
100
AcDbCircle
10
72.212227026219068
20
-22.860608171229035
30
0
40
1.7000000000000042
210
0
220
-0
230
1
0
LINE
5
160
100
AcDbEntity
8
0
100
AcDbLine
10
70.286706810134262
20
29.784716359051345
30
0
11
73.216198183415386
21
29.132492235948661
31
0
0
ENDSEC
0
SECTION
2
OBJECTS
0
DICTIONARY
5
C
100
AcDbDictionary
3
ACAD_GROUP
350
D
3
ACAD_MLINESTYLE
350
17
0
DICTIONARY
5
D
100
AcDbDictionary
0
DICTIONARY
5
1A
330
C
100
AcDbDictionary
0
DICTIONARY
5
17
100
AcDbDictionary
0
ENDSEC
0
EOF
