0
SECTION
2
HEADER
9
$INSUNITS
70
4
9
$ACADVER
1
AC1014
9
$HANDSEED
5
FFFF
0
ENDSEC
0
SECTION
2
TABLES
0
TABLE
2
VPORT
5
8
100
AcDbSymbolTable
0
ENDTAB
0
TABLE
2
LTYPE
5
5
100
AcDbSymbolTable
0
LTYPE
5
14
100
AcDbSymbolTableRecord
100
AcDbLinetypeTableRecord
2
BYBLOCK
70
0
0
LTYPE
5
15
100
AcDbSymbolTableRecord
100
AcDbLinetypeTableRecord
2
BYLAYER
70
0
0
ENDTAB
0
TABLE
2
LAYER
5
2
100
AcDbSymbolTable
70
2
0
LAYER
5
50
100
AcDbSymbolTableRecord
100
AcDbLayerTableRecord
2
0
70
0
6
CONTINUOUS
0
ENDTAB
0
TABLE
2
STYLE
5
3
100
AcDbSymbolTable
70
1
0
STYLE
5
11
100
AcDbSymbolTableRecord
100
AcDbTextStyleTableRecord
2
STANDARD
70
0
0
ENDTAB
0
TABLE
2
VIEW
5
6
100
AcDbSymbolTable
70
0
0
ENDTAB
0
TABLE
2
UCS
5
7
100
AcDbSymbolTable
70
0
0
ENDTAB
0
TABLE
2
APPID
5
9
100
AcDbSymbolTable
70
2
0
APPID
5
12
100
AcDbSymbolTableRecord
100
AcDbRegAppTableRecord
2
ACAD
70
0
0
ENDTAB
0
TABLE
2
DIMSTYLE
5
A
100
AcDbSymbolTable
70
1
0
ENDTAB
0
TABLE
2
BLOCK_RECORD
5
1
100
AcDbSymbolTable
70
1
0
BLOCK_RECORD
5
1F
100
AcDbSymbolTableRecord
100
AcDbBlockTableRecord
2
*MODEL_SPACE
0
BLOCK_RECORD
5
1B
100
AcDbSymbolTableRecord
100
AcDbBlockTableRecord
2
*PAPER_SPACE
0
ENDTAB
0
ENDSEC
0
SECTION
2
BLOCKS
0
BLOCK
5
20
100
AcDbEntity
100
AcDbBlockBegin
2
*MODEL_SPACE
0
ENDBLK
5
21
100
AcDbEntity
100
AcDbBlockEnd
0
BLOCK
5
1C
100
AcDbEntity
100
AcDbBlockBegin
2
*PAPER_SPACE
0
ENDBLK
5
1D
100
AcDbEntity
100
AcDbBlockEnd
0
ENDSEC
0
SECTION
2
ENTITIES
0
ARC
5
100
100
AcDbEntity
8
0
100
AcDbCircle
10
70.191616365192459
20
-25.860686589749562
30
0
40
1.0000000000000402
210
0
220
0
230
1
100
AcDbArc
50
180.12810133301465
51
269.9999999999992
0
LINE
5
101
100
AcDbEntity
8
0
100
AcDbLine
10
79.293000879168545
20
-40.097715532907038
30
0
11
79.293000879168545
21
-39.766839597954899
31
0
0
LINE
5
102
100
AcDbEntity
8
0
100
AcDbLine
10
69.65453923821849
20
-38.766839597954863
30
0
11
78.293000879168545
21
-38.766839597954899
31
0
0
LINE
5
103
100
AcDbEntity
8
0
100
AcDbLine
10
16.679238500450836
20
-55.125000014901168
30
0
11
-3.2391090149011603
21
-55.125000014901168
31
0
0
LINE
5
104
100
AcDbEntity
8
0
100
AcDbLine
10
46.462010202181546
20
33.296216185782825
30
0
11
46.842319732657018
21
33.211543791016858
31
0
0
CIRCLE
5
105
100
AcDbEntity
8
0
100
AcDbCircle
10
72.184916482055684
20
20.139313410250416
30
0
40
1.7000000000000042
210
0
220
-0
230
1
0
ARC
5
106
100
AcDbEntity
8
0
100
AcDbCircle
10
70.06913806636868
20
27.169991695165724
30
0
40
0.99999999999999545
210
0
220
-0
230
1
100
AcDbArc
50
77.448343528336267
51
180.12810133301465
0
LINE
5
107
100
AcDbEntity
8
0
100
AcDbLine
10
47.625000002232397
20
32.235443318397763
30
0
11
47.625000014901168
21
20.575000014901171
31
0
0
LINE
5
108
100
AcDbEntity
8
0
100
AcDbLine
10
-58.374999999999993
20
-49.075000000000003
30
0
11
-58.374999999999993
21
9.6520145742602121
31
0
0
LINE
5
109
100
AcDbEntity
8
0
100
AcDbLine
10
79.293000879168758
20
19.371487498893256
30
0
11
79.293000879168588
21
-25.860686589749548
31
0
0
ARC
5
110
100
AcDbEntity
8
0
100
AcDbCircle
10
-23.487140527437013
20
-69.075000000000088
30
0
40
11.749999999999993
210
0
220
-0
230
1
100
AcDbArc
50
65.128640082631236
51
90
0
ARC
5
111
100
AcDbEntity
8
0
100
AcDbCircle
10
46.625000002232355
20
32.235443317311287
30
0
40
1.0000000000000409
210
0
220
-0
230
1
100
AcDbArc
50
0
51
77.448343528336878
0
LINE
5
112
100
AcDbEntity
8
0
100
AcDbLine
10
25.588686733591132
20
-78.874266602714982
30
0
11
-18.545297769562634
21
-58.414761252371378
31
0
0
CIRCLE
5
113
100
AcDbEntity
8
0
100
AcDbCircle
10
71.123060036718741
20
-41.958750719153208
30
0
40
1.7000000000000042
210
0
220
-0
230
1
0
LINE
5
114
100
AcDbEntity
8
0
100
AcDbLine
10
69.191618864569918
20
-25.862922377924168
30
0
11
69.072855599904656
21
27.256138355091384
31
0
0
ARC
5
115
100
AcDbEntity
8
0
100
AcDbCircle
10
-50.124999999999993
20
9.6520145742602121
30
0
40
8.2500000000000036
210
0
220
0
230
1
100
AcDbArc
50
124.21965748406366
51
180
0
CIRCLE
5
116
100
AcDbEntity
8
0
100
AcDbCircle
10
72.184913982671944
20
-22.860686589749591
30
0
40
1.7000000000000042
210
0
220
-0
230
1
0
LINE
5
117
100
AcDbEntity
8
0
100
AcDbLine
10
78.187318978170083
20
-44.223393525707628
30
0
11
60.306777791769328
21
-75.186613205203358
31
0
0
ARC
5
118
100
AcDbEntity
8
0
100
AcDbCircle
10
71.043000879168758
20
19.371487498893256
30
0
40
8.2500000000000018
210
0
220
-0
230
1
100
AcDbArc
50
0
51
77.448343528336423
0
LINE
5
119
100
AcDbEntity
8
0
100
AcDbLine
10
72.835888655172212
20
27.424316406963847
30
0
11
70.286457796793343
21
28.146092168871245
31
0
0
CIRCLE
5
120
100
AcDbEntity
8
0
100
AcDbCircle
10
43.179417830196847
20
26.599540908276225
30
0
40
1.7000000000000042
210
0
220
-0
230
1
0
ARC
5
121
100
AcDbEntity
8
0
100
AcDbCircle
10
53.162459692767797
20
-71.060935212402796
30
0
40
8.2499999999999787
210
-0
220
0
230
1
100
AcDbArc
50
270.78076435098171
51
329.99456280345265
0
LINE
5
122
100
AcDbEntity
8
0
100
AcDbLine
10
20.276385424302884
20
39.126203027328373
30
0
11
46.462010202181546
21
33.296216185782825
31
0
0
LINE
5
123
100
AcDbEntity
8
0
100
AcDbLine
10
-48.625000014901161
20
-47.575000014901164
30
0
11
-48.625000014901161
21
11.575000014901162
31
0
0
CIRCLE
5
124
100
AcDbEntity
8
0
100
AcDbCircle
10
-18.211996651886256
20
-50.578128296659877
30
0
40
1.7000000000000042
210
0
220
-0
230
1
0
LINE
5
125
100
AcDbEntity
8
0
100
AcDbLine
10
-3.2391090149011603
20
-55.125000014901168
30
0
11
-11.23910901490116
21
-35.575000014901164
31
0
0
LINE
5
126
100
AcDbEntity
8
0
100
AcDbLine
10
-50.124999999999993
20
-57.32500000000001
30
0
11
-23.487140527437013
21
-57.325000000000095
31
0
0
ARC
5
127
100
AcDbEntity
8
0
100
AcDbCircle
10
-50.124999999999993
20
-49.075000000000003
30
0
40
8.2500000000000018
210
0
220
0
230
1
100
AcDbArc
50
180
51
270
0
LINE
5
128
100
AcDbEntity
8
0
100
AcDbLine
10
-27.574999985098838
20
-47.575000014901164
30
0
11
-48.625000014901161
21
-47.575000014901164
31
0
0
LINE
5
129
100
AcDbEntity
8
0
100
AcDbLine
10
-27.574999985098838
20
-35.575000014901178
30
0
11
-27.574999985098838
21
-47.575000014901164
31
0
0
CIRCLE
5
130
100
AcDbEntity
8
0
100
AcDbCircle
10
-51.124999999999986
20
-50.075000000000003
30
0
40
1.7000000000000042
210
0
220
-0
230
1
0
LINE
5
131
100
AcDbEntity
8
0
100
AcDbLine
10
-18.622388196305426
20
39.326498617603804
30
0
11
18.484192332427686
21
39.323374090010148
31
0
0
LINE
5
132
100
AcDbEntity
8
0
100
AcDbLine
10
-29.57500001490116
20
23.575000014901168
30
0
11
-10.525000014901158
21
23.575000014901168
31
0
0
LINE
5
133
100
AcDbEntity
8
0
100
AcDbLine
10
34.825792392437464
20
-59.987354475666834
30
0
11
16.679238500450836
21
-55.125000014901168
31
0
0
LINE
5
134
100
AcDbEntity
8
0
100
AcDbLine
10
29.575000014901171
20
20.575000014901175
30
0
11
47.625000014901168
21
20.575000014901171
31
0
0
LINE
5
135
100
AcDbEntity
8
0
100
AcDbLine
10
53.274878209483589
20
-79.310169242123308
30
0
11
29.170909739878276
21
-79.638652150057908
31
0
0
LINE
5
136
100
AcDbEntity
8
0
100
AcDbLine
10
29.575000014901171
20
23.075000014901171
30
0
11
29.575000014901171
21
20.575000014901175
31
0
0
ARC
5
137
100
AcDbEntity
8
0
100
AcDbCircle
10
71.043000879168545
20
-40.097715532907046
30
0
40
8.2499999999999964
210
-0
220
0
230
1
100
AcDbArc
50
-30.005437196547405
51
0
0
CIRCLE
5
138
100
AcDbEntity
8
0
100
AcDbCircle
10
18.593471836341028
20
32.073374083806108
30
0
40
1.7000000000000042
210
0
220
-0
230
1
0
LINE
5
139
100
AcDbEntity
8
0
100
AcDbLine
10
66.363087357040087
20
-43.467801486823994
30
0
11
51.825587342138959
21
-68.647490127666146
31
0
0
ARC
5
140
100
AcDbEntity
8
0
100
AcDbCircle
10
18.483497648299434
20
31.073374119257785
30
0
40
8.2499999999999911
210
0
220
-0
230
1
100
AcDbArc
50
77.448343528336437
51
89.995175458340526
0
LINE
5
141
100
AcDbEntity
8
0
100
AcDbLine
10
50.459561938354518
20
-69.013515531450579
30
0
11
34.825792392437464
21
-59.987354475666834
31
0
0
ARC
5
142
100
AcDbEntity
8
0
100
AcDbCircle
10
-18.623082880433731
20
31.076498646851441
30
0
40
8.2499999999999964
210
0
220
-0
230
1
100
AcDbArc
50
89.995175458340171
51
124.21965748406281
0
LINE
5
143
100
AcDbEntity
8
0
100
AcDbLine
10
-29.57500001490116
20
11.575000014901155
30
0
11
-29.57500001490116
21
23.575000014901168
31
0
0
LINE
5
144
100
AcDbEntity
8
0
100
AcDbLine
10
-10.525000014901158
20
23.575000014901168
30
0
11
-10.525000014901165
21
29.575000014901171
31
0
0
LINE
5
145
100
AcDbEntity
8
0
100
AcDbLine
10
-10.525000014901165
20
29.575000014901171
30
0
11
10.52500001490116
21
29.575000014901171
31
0
0
LINE
5
146
100
AcDbEntity
8
0
100
AcDbLine
10
10.52500001490116
20
29.575000014901171
30
0
11
10.52500001490116
21
23.075000014901171
31
0
0
LINE
5
147
100
AcDbEntity
8
0
100
AcDbLine
10
-48.625000014901161
20
11.575000014901162
30
0
11
-29.57500001490116
21
11.575000014901155
31
0
0
CIRCLE
5
148
100
AcDbEntity
8
0
100
AcDbCircle
10
53.734195417407193
20
-72.070548207377499
30
0
40
1.7000000000000042
210
0
220
-0
230
1
0
CIRCLE
5
149
100
AcDbEntity
8
0
100
AcDbCircle
10
-51.125
20
10.181267704619675
30
0
40
1.7000000000000042
210
0
220
-0
230
1
0
CIRCLE
5
150
100
AcDbEntity
8
0
100
AcDbCircle
10
-18.930872726200626
20
32.076524567574076
30
0
40
1.7000000000000042
210
0
220
-0
230
1
0
LINE
5
151
100
AcDbEntity
8
0
100
AcDbLine
10
-54.764528624798587
20
16.473837947792727
30
0
11
-23.262611505232229
21
37.898322020384029
31
0
0
LINE
5
152
100
AcDbEntity
8
0
100
AcDbLine
10
10.52500001490116
20
23.075000014901171
30
0
11
29.575000014901171
21
23.075000014901171
31
0
0
LINE
5
153
100
AcDbEntity
8
0
100
AcDbLine
10
70.191616365192445
20
-26.860686589749605
30
0
11
78.293000879168588
21
-26.86068658974953
31
0
0
CIRCLE
5
154
100
AcDbEntity
8
0
100
AcDbCircle
10
28.497705440723749
20
-72.231677384402474
30
0
40
1.7000000000000042
210
0
220
-0
230
1
0
ARC
5
155
100
AcDbEntity
8
0
100
AcDbCircle
10
78.293000879168588
20
-25.860686589749534
30
0
40
0.99999999999999645
210
0
220
0
230
1
100
AcDbArc
50
270
51
360
0
ARC
5
156
100
AcDbEntity
8
0
100
AcDbCircle
10
78.293000879168531
20
-39.766839597954899
30
0
40
1.0000000000000053
210
0
220
-0
230
1
100
AcDbArc
50
0
51
89.99999999999919
0
ARC
5
157
100
AcDbEntity
8
0
100
AcDbCircle
10
29.058491223162481
20
-71.389418120337481
30
0
40
8.2499999999998845
210
0
220
0
230
1
100
AcDbArc
50
245.12864008263111
51
270.78076435098171
0
LINE
5
158
100
AcDbEntity
8
0
100
AcDbLine
10
-27.574999985098838
20
-35.575000014901178
30
0
11
-11.23910901490116
21
-35.575000014901164
31
0
0
LINE
5
159
100
AcDbEntity
8
0
100
AcDbLine
10
66.363087357040087
20
-43.467801486823994
30
0
11
68.788513834434042
21
-39.266839597954863
31
0
0
ARC
5
160
100
AcDbEntity
8
0
100
AcDbCircle
10
69.654539238218462
20
-39.766839597954842
30
0
40
0.99999999999997868
210
0
220
-0
230
1
100
AcDbArc
50
89.99999999999838
51
150.00000000000051
0
ARC
5
161
100
AcDbEntity
8
0
100
AcDbCircle
10
50.959561938354518
20
-68.147490127666131
30
0
40
1.0000000000000027
210
0
220
0
230
1
100
AcDbArc
50
240.00000000000023
51
329.99999999999937
0
ENDSEC
0
SECTION
2
OBJECTS
0
DICTIONARY
5
C
100
AcDbDictionary
3
ACAD_GROUP
350
D
3
ACAD_MLINESTYLE
350
17
0
DICTIONARY
5
D
100
AcDbDictionary
0
DICTIONARY
5
1A
330
C
100
AcDbDictionary
0
DICTIONARY
5
17
100
AcDbDictionary
0
ENDSEC
0
EOF
