0
SECTION
2
HEADER
9
$INSUNITS
70
4
9
$ACADVER
1
AC1014
9
$HANDSEED
5
FFFF
0
ENDSEC
0
SECTION
2
TABLES
0
TABLE
2
VPORT
5
8
100
AcDbSymbolTable
0
ENDTAB
0
TABLE
2
LTYPE
5
5
100
AcDbSymbolTable
0
LTYPE
5
14
100
AcDbSymbolTableRecord
100
AcDbLinetypeTableRecord
2
BYBLOCK
70
0
0
LTYPE
5
15
100
AcDbSymbolTableRecord
100
AcDbLinetypeTableRecord
2
BYLAYER
70
0
0
ENDTAB
0
TABLE
2
LAYER
5
2
100
AcDbSymbolTable
70
2
0
LAYER
5
50
100
AcDbSymbolTableRecord
100
AcDbLayerTableRecord
2
0
70
0
6
CONTINUOUS
0
ENDTAB
0
TABLE
2
STYLE
5
3
100
AcDbSymbolTable
70
1
0
STYLE
5
11
100
AcDbSymbolTableRecord
100
AcDbTextStyleTableRecord
2
STANDARD
70
0
0
ENDTAB
0
TABLE
2
VIEW
5
6
100
AcDbSymbolTable
70
0
0
ENDTAB
0
TABLE
2
UCS
5
7
100
AcDbSymbolTable
70
0
0
ENDTAB
0
TABLE
2
APPID
5
9
100
AcDbSymbolTable
70
2
0
APPID
5
12
100
AcDbSymbolTableRecord
100
AcDbRegAppTableRecord
2
ACAD
70
0
0
ENDTAB
0
TABLE
2
DIMSTYLE
5
A
100
AcDbSymbolTable
70
1
0
ENDTAB
0
TABLE
2
BLOCK_RECORD
5
1
100
AcDbSymbolTable
70
1
0
BLOCK_RECORD
5
1F
100
AcDbSymbolTableRecord
100
AcDbBlockTableRecord
2
*MODEL_SPACE
0
BLOCK_RECORD
5
1B
100
AcDbSymbolTableRecord
100
AcDbBlockTableRecord
2
*PAPER_SPACE
0
ENDTAB
0
ENDSEC
0
SECTION
2
BLOCKS
0
BLOCK
5
20
100
AcDbEntity
100
AcDbBlockBegin
2
*MODEL_SPACE
0
ENDBLK
5
21
100
AcDbEntity
100
AcDbBlockEnd
0
BLOCK
5
1C
100
AcDbEntity
100
AcDbBlockBegin
2
*PAPER_SPACE
0
ENDBLK
5
1D
100
AcDbEntity
100
AcDbBlockEnd
0
ENDSEC
0
SECTION
2
ENTITIES
0
LINE
5
100
100
AcDbEntity
8
0
100
AcDbLine
10
-48.625000014901161
20
11.575000014901162
30
0
11
-29.57500001490116
21
11.575000014901155
31
0
0
LINE
5
101
100
AcDbEntity
8
0
100
AcDbLine
10
-48.625000014901161
20
-47.575000014901164
30
0
11
-48.625000014901161
21
11.575000014901162
31
0
0
LINE
5
102
100
AcDbEntity
8
0
100
AcDbLine
10
-29.57500001490116
20
11.575000014901155
30
0
11
-29.57500001490116
21
23.575000014901168
31
0
0
LINE
5
103
100
AcDbEntity
8
0
100
AcDbLine
10
-29.57500001490116
20
23.575000014901168
30
0
11
-10.525000014901158
21
23.575000014901168
31
0
0
LINE
5
104
100
AcDbEntity
8
0
100
AcDbLine
10
-10.525000014901165
20
29.575000014901171
30
0
11
10.52500001490116
21
29.575000014901171
31
0
0
LINE
5
105
100
AcDbEntity
8
0
100
AcDbLine
10
-10.525000014901158
20
23.575000014901168
30
0
11
-10.525000014901165
21
29.575000014901171
31
0
0
LINE
5
106
100
AcDbEntity
8
0
100
AcDbLine
10
10.52500001490116
20
29.575000014901171
30
0
11
10.52500001490116
21
23.075000014901171
31
0
0
LINE
5
107
100
AcDbEntity
8
0
100
AcDbLine
10
10.52500001490116
20
23.075000014901171
30
0
11
29.575000014901171
21
23.075000014901171
31
0
0
LINE
5
108
100
AcDbEntity
8
0
100
AcDbLine
10
29.575000014901171
20
23.075000014901171
30
0
11
29.575000014901171
21
20.575000014901175
31
0
0
LINE
5
109
100
AcDbEntity
8
0
100
AcDbLine
10
29.575000014901171
20
20.575000014901175
30
0
11
48.625000014901161
21
20.575000014901175
31
0
0
LINE
5
110
100
AcDbEntity
8
0
100
AcDbLine
10
48.625000014901161
20
20.575000014901175
30
0
11
48.625000014901161
21
-32.649361715741414
31
0
0
LINE
5
111
100
AcDbEntity
8
0
100
AcDbLine
10
48.625000014901161
20
-32.649361715741414
30
0
11
67.363087357040087
21
-43.467801486823994
31
0
0
LINE
5
112
100
AcDbEntity
8
0
100
AcDbLine
10
67.363087357040087
20
-43.467801486823994
30
0
11
52.075587342138967
21
-69.946528233342789
31
0
0
LINE
5
113
100
AcDbEntity
8
0
100
AcDbLine
10
52.075587342138967
20
-69.946528233342789
30
0
11
34.825792392437464
21
-59.987354475666834
31
0
0
LINE
5
114
100
AcDbEntity
8
0
100
AcDbLine
10
34.825792392437464
20
-59.987354475666834
30
0
11
16.679238500450836
21
-55.125000014901168
31
0
0
LINE
5
115
100
AcDbEntity
8
0
100
AcDbLine
10
16.679238500450836
20
-55.125000014901168
30
0
11
-3.2391090149011603
21
-55.125000014901168
31
0
0
LINE
5
116
100
AcDbEntity
8
0
100
AcDbLine
10
-3.2391090149011603
20
-55.125000014901168
30
0
11
-3.2391090149011603
21
-35.575000014901164
31
0
0
LINE
5
117
100
AcDbEntity
8
0
100
AcDbLine
10
-9.5250000000000021
20
-35.575000014901164
30
0
11
-3.2391090149011603
21
-35.575000014901164
31
0
0
LINE
5
118
100
AcDbEntity
8
0
100
AcDbLine
10
-9.5250000000000021
20
-35.575000014901164
30
0
11
-27.574999985098838
21
-35.575000014901178
31
0
0
LINE
5
119
100
AcDbEntity
8
0
100
AcDbLine
10
-27.574999985098838
20
-35.575000014901178
30
0
11
-27.574999985098838
21
-47.575000014901164
31
0
0
LINE
5
120
100
AcDbEntity
8
0
100
AcDbLine
10
-27.574999985098838
20
-47.575000014901164
30
0
11
-48.625000014901161
21
-47.575000014901164
31
0
0
LINE
5
121
100
AcDbEntity
8
0
100
AcDbLine
10
-18.622703961818292
20
35.576498630898186
30
0
11
18.483876566914734
21
35.573374103304531
31
0
0
ARC
5
122
100
AcDbEntity
8
0
100
AcDbCircle
10
18.483497648299434
20
31.073374119257785
30
0
40
4.4999999999999964
210
0
220
-0
230
1
100
AcDbArc
50
77.448343528336451
51
89.99517545834189
0
LINE
5
123
100
AcDbEntity
8
0
100
AcDbLine
10
19.461436435210405
20
35.465826250932651
30
0
11
45.647061213089117
21
29.635839409387096
31
0
0
CIRCLE
5
124
100
AcDbEntity
8
0
100
AcDbCircle
10
18.593471836341028
20
32.073374083806108
30
0
40
1.1000000000000014
210
0
220
-0
230
1
0
CIRCLE
5
125
100
AcDbEntity
8
0
100
AcDbCircle
10
43.179417830196847
20
26.599540908276225
30
0
40
1.1000000000000014
210
0
220
-0
230
1
0
CIRCLE
5
126
100
AcDbEntity
8
0
100
AcDbCircle
10
-18.930872726200626
20
32.076524567574076
30
0
40
1.1000000000000014
210
0
220
-0
230
1
0
ARC
5
127
100
AcDbEntity
8
0
100
AcDbCircle
10
-18.623082880433731
20
31.076498646851441
30
0
40
4.4999999999999982
210
0
220
-0
230
1
100
AcDbArc
50
89.995175458340171
51
124.21965748405948
0
LINE
5
128
100
AcDbEntity
8
0
100
AcDbLine
10
-52.655651977162854
20
13.373009141641585
30
0
11
-21.153734857596334
21
34.797493214233
31
0
0
LINE
5
129
100
AcDbEntity
8
0
100
AcDbLine
10
45.647061213089117
20
29.635839409387096
30
0
11
70.280283463908418
21
24.377364672974004
31
0
0
LINE
5
130
100
AcDbEntity
8
0
100
AcDbLine
10
72.020939666079812
20
23.763939630568256
30
0
11
70.280283463908418
21
24.377364672974004
31
0
0
ARC
5
131
100
AcDbEntity
8
0
100
AcDbCircle
10
71.043000879168758
20
19.371487498893256
30
0
40
4.5000000000000018
210
0
220
-0
230
1
100
AcDbArc
50
0
51
77.448343528335755
0
CIRCLE
5
132
100
AcDbEntity
8
0
100
AcDbCircle
10
72.093360488741268
20
20.13906031658032
30
0
40
1.1000000000000014
210
0
220
-0
230
1
0
LINE
5
133
100
AcDbEntity
8
0
100
AcDbLine
10
75.543000879168758
20
19.371487498893256
30
0
11
75.543000879168588
21
-25.86068658974952
31
0
0
LINE
5
134
100
AcDbEntity
8
0
100
AcDbLine
10
75.543000879168588
20
-25.860686589749548
30
0
11
75.543000879168545
21
-40.097715532907046
31
0
0
ARC
5
135
100
AcDbEntity
8
0
100
AcDbCircle
10
71.043000879168545
20
-40.097715532907046
30
0
40
4.4999999999999929
210
-0
220
0
230
1
100
AcDbArc
50
-30.005437196547454
51
0
0
LINE
5
136
100
AcDbEntity
8
0
100
AcDbLine
10
74.939901660442104
20
-42.348085347161906
30
0
11
57.05936047404137
21
-73.311305026657664
31
0
0
ARC
5
137
100
AcDbEntity
8
0
100
AcDbCircle
10
53.162459692767797
20
-71.060935212402796
30
0
40
4.4999999999999858
210
-0
220
0
230
1
100
AcDbArc
50
270.78076435098166
51
329.99456280345265
0
CIRCLE
5
138
100
AcDbEntity
8
0
100
AcDbCircle
10
53.734195417407207
20
-72.070548207377513
30
0
40
1.1000000000000014
210
0
220
-0
230
1
0
CIRCLE
5
139
100
AcDbEntity
8
0
100
AcDbCircle
10
71.123060036718741
20
-41.958750719153208
30
0
40
1.1000000000000014
210
0
220
-0
230
1
0
CIRCLE
5
140
100
AcDbEntity
8
0
100
AcDbCircle
10
28.497705440723749
20
-72.231677384402474
30
0
40
1.1000000000000014
210
0
220
-0
230
1
0
ARC
5
141
100
AcDbEntity
8
0
100
AcDbCircle
10
29.058491223162481
20
-71.389418120337481
30
0
40
4.4999999999998845
210
0
220
0
230
1
100
AcDbArc
50
245.12864008263111
51
270.78076435098194
0
LINE
5
142
100
AcDbEntity
8
0
100
AcDbLine
10
27.165870592487224
20
-75.472062747088799
30
0
11
-16.968113910666563
21
-55.012557396745194
31
0
0
ARC
5
143
100
AcDbEntity
8
0
100
AcDbCircle
10
-23.487140527437013
20
-69.075000000000088
30
0
40
15.499999999999993
210
0
220
-0
230
1
100
AcDbArc
50
65.12864008263125
51
90
0
LINE
5
144
100
AcDbEntity
8
0
100
AcDbLine
10
-50.124999999999993
20
-53.57500000000001
30
0
11
-23.487140527437013
21
-53.575000000000088
31
0
0
ARC
5
145
100
AcDbEntity
8
0
100
AcDbCircle
10
-50.124999999999993
20
-49.075000000000003
30
0
40
4.5000000000000018
210
0
220
0
230
1
100
AcDbArc
50
180
51
270
0
LINE
5
146
100
AcDbEntity
8
0
100
AcDbLine
10
-54.624999999999993
20
-49.075000000000003
30
0
11
-54.624999999999993
21
9.6520145742602104
31
0
0
CIRCLE
5
147
100
AcDbEntity
8
0
100
AcDbCircle
10
-51.124999999999986
20
-50.075000000000003
30
0
40
1.1000000000000014
210
0
220
-0
230
1
0
CIRCLE
5
148
100
AcDbEntity
8
0
100
AcDbCircle
10
-18.211996651886256
20
-50.578128296659877
30
0
40
1.1000000000000014
210
0
220
-0
230
1
0
ARC
5
149
100
AcDbEntity
8
0
100
AcDbCircle
10
-50.124999999999993
20
9.6520145742602121
30
0
40
4.5000000000000009
210
0
220
0
230
1
100
AcDbArc
50
124.21965748406357
51
180
0
CIRCLE
5
150
100
AcDbEntity
8
0
100
AcDbCircle
10
-51.125
20
10.181267704619675
30
0
40
1.1000000000000014
210
0
220
-0
230
1
0
LINE
5
151
100
AcDbEntity
8
0
100
AcDbLine
10
53.22377888370368
20
-75.560517410432169
30
0
11
29.119810414098389
21
-75.889000318366797
31
0
0
CIRCLE
5
152
100
AcDbEntity
8
0
100
AcDbCircle
10
72.212227026219068
20
-22.860608171229035
30
0
40
1.1000000000000014
210
0
220
-0
230
1
0
ENDSEC
0
SECTION
2
OBJECTS
0
DICTIONARY
5
C
100
AcDbDictionary
3
ACAD_GROUP
350
D
3
ACAD_MLINESTYLE
350
17
0
DICTIONARY
5
D
100
AcDbDictionary
0
DICTIONARY
5
1A
330
C
100
AcDbDictionary
0
DICTIONARY
5
17
100
AcDbDictionary
0
ENDSEC
0
EOF
